<?xml version="1.0" encoding="utf-8"?>
<!-- Generator: Adobe Illustrator 24.1.2, SVG Export Plug-In . SVG Version: 6.00 Build 0)  -->
<svg version="1.1" id="Capa_1" xmlns="http://www.w3.org/2000/svg" xmlns:xlink="http://www.w3.org/1999/xlink" x="0px" y="0px"
	 viewBox="0 0 595.28 231.43" style="enable-background:new 0 0 595.28 231.43;" xml:space="preserve">
<style type="text/css">
	.st0{fill:#FAFAFA;}
	.st1{fill:#FFFFFF;}
	.st2{fill:#FAFAFA;stroke:#FFFFFF;stroke-miterlimit:10;}
</style>
<g>
	<g>
		<path class="st0" d="M21.66,21.46c0.07-0.32,0.17-0.65,0.31-0.97c0-0.32,0.07-0.52,0.21-0.61c0.14-0.08,0.28-0.28,0.41-0.61
			c0.14,0.33,0.24,0.53,0.31,0.61c0.07,0.08,0.18,0.28,0.31,0.61c0.14,0,0.28,0.33,0.41,0.97c0.41-0.65,0.62-1.13,0.62-1.46
			l3.73,1.46l0.41,0.24c0.96-0.65,1.66-0.65,2.07,0c0.41,0.65,0.97,1.13,1.66,1.46c0.83,0.49,1.38,1.09,1.66,1.82
			c0.27,0.73,0.55,1.5,0.83,2.31c1.1,3.4,1.8,7.21,2.07,11.41c0.28,3.73,0.63,7.53,1.05,11.42c0.42,3.88,0.77,7.69,1.05,11.42
			c0.14,2.59,0.21,5.14,0.21,7.65c0,2.51,0.07,5.06,0.21,7.65c0,1.3,0.03,2.64,0.1,4.01c0.07,1.38,0.18,2.79,0.32,4.25
			c0.28-0.97,0.59-1.9,0.94-2.79c0.35-0.89,0.67-1.74,0.95-2.55c0.56-1.78,1.05-3.56,1.47-5.34c0.42-1.78,0.91-3.56,1.47-5.34
			c0.42-1.29,0.84-2.59,1.25-3.89c0.42-1.29,0.84-2.59,1.26-3.89c0.7-1.78,1.4-3.52,2.1-5.22c0.7-1.7,1.4-3.44,2.1-5.22
			c0.7-1.61,1.36-3.23,1.99-4.86c0.63-1.62,1.37-3.16,2.2-4.61c1.12-1.78,2.17-3.6,3.15-5.47c0.98-1.86,2.31-3.44,3.99-4.74
			c2.24-1.45,4.55-1.86,6.93-1.21c1.4,0.33,2.76,0.89,4.1,1.7c1.33,0.81,2.76,1.06,4.31,0.73c0.42-0.16,0.87-0.04,1.36,0.37
			c0.49,0.4,1.01,0.69,1.57,0.85c0.84,0.33,1.47,0.85,1.89,1.58c0.42,0.73,0.91,1.5,1.47,2.31c0.28,0.33,0.42,0.69,0.42,1.09
			c0,0.4,0.14,0.77,0.42,1.09c1.54,3.24,2.48,6.52,2.83,9.84c0.35,3.32,0.59,6.76,0.73,10.32c0,1.62,0.04,3.24,0.1,4.86
			c0.07,1.62,0.03,3.24-0.1,4.86c-0.14,2.27-0.28,4.53-0.42,6.8c-0.14,2.27-0.35,4.53-0.63,6.8c-0.14,1.3-0.25,2.67-0.31,4.13
			c-0.07,1.46-0.18,2.91-0.31,4.37c-0.28,1.78-0.46,3.56-0.52,5.34c-0.07,1.79-0.25,3.57-0.53,5.35c-0.14,1.62-0.25,3.2-0.31,4.74
			c-0.07,1.54-0.18,3.2-0.32,4.98v2.43c-0.28,2.27-0.45,4.5-0.52,6.68c-0.07,2.19-0.18,4.42-0.32,6.68c0.14,0,0.28,0.08,0.42,0.24
			c0-0.65,0.14-1.46,0.42-2.43c0.28-1.78,0.59-3.52,0.94-5.22c0.35-1.7,0.67-3.44,0.95-5.22v-0.48l1.89-10.21
			c0.28-0.97,0.53-1.94,0.74-2.91c0.21-0.97,0.45-2.02,0.73-3.16c0.28-1.13,0.56-2.27,0.84-3.4c0.28-1.13,0.56-2.27,0.84-3.4
			c0.42-1.46,0.84-2.91,1.26-4.37c0.42-1.46,0.77-2.92,1.05-4.37l1.89-5.83c0.14-0.49,0.28-0.93,0.42-1.34
			c0.14-0.4,0.28-0.77,0.42-1.09c0.14-0.32,0.24-0.52,0.31-0.61c0.07-0.08,0.18-0.28,0.31-0.61c0.42-1.62,0.88-3.19,1.37-4.74
			c0.49-1.53,1.01-3.04,1.58-4.49c0.14-0.49,0.24-1.01,0.31-1.58c0.07-0.57,0.25-1.09,0.53-1.58c0.28-0.81,0.66-1.66,1.15-2.55
			c0.49-0.89,0.87-1.74,1.16-2.55c0.7-1.3,1.33-2.67,1.89-4.13c0.56-1.46,1.19-2.83,1.89-4.13c0.7-1.29,1.44-2.63,2.2-4.01
			c0.77-1.37,1.65-2.63,2.63-3.77c1.96-2.27,4.2-4.45,6.72-6.56c1.4-0.97,2.87-1.62,4.41-1.94c1.54-0.32,3.09-0.4,4.63-0.24
			c1.12,0,2.24,0.41,3.36,1.21c1.12,0.65,2.27,1.33,3.46,2.06c1.19,0.73,2.35,1.42,3.46,2.07c0.7,0.33,1.75,0.49,3.15,0.49
			c2.09,0.49,3.84,1.94,5.25,4.37c0.28,0.48,0.59,0.89,0.94,1.21c0.35,0.33,0.66,0.65,0.94,0.97c2.37,4.86,3.36,10.44,2.93,16.76
			c-0.14,1.94-0.21,3.93-0.21,5.95c0,2.03-0.07,4.01-0.21,5.95c-0.14,1.62-0.25,3.2-0.31,4.74c-0.07,1.54-0.25,3.12-0.53,4.74
			c-0.28,2.59-0.52,5.19-0.73,7.77c-0.21,2.59-0.39,5.18-0.52,7.77c-0.28,3.56-0.56,7.08-0.84,10.57
			c-0.29,3.48-0.56,7.09-0.84,10.81c-0.14,1.62-0.21,3.2-0.21,4.74s0,3.12,0,4.74c0,2.26-0.03,4.61-0.11,7.04
			c-0.07,2.43-0.1,4.78-0.1,7.04c0,3.08-0.03,6.12-0.1,9.11c-0.07,3,0.03,6.04,0.31,9.11c0.28,2.27,0.45,4.46,0.53,6.56
			c0.07,2.11,0.24,4.29,0.53,6.56c0.28,2.75,0.73,5.46,1.36,8.13c0.63,2.67,1.22,5.38,1.78,8.14c0.14,0.81,0.28,1.58,0.42,2.3
			c0.14,0.73,0.28,1.5,0.42,2.31c0.42,1.45,1.05,2.43,1.89,2.91c0.7,0.33,1.19,0.77,1.47,1.34c0.28,0.56,0.49,1.26,0.63,2.06
			c0,0.65,0.03,1.3,0.11,1.94c0.07,0.65,0.03,1.3-0.11,1.95c-0.14,0.48-0.35,0.97-0.63,1.46c-0.28,0.48-0.56,0.97-0.84,1.46h-1.05
			c0-0.32,0.03-0.61,0.11-0.84c0.07-0.25,0.1-0.53,0.1-0.86c0-0.16-0.07-0.32-0.21-0.48c-0.28,0.32-0.49,0.6-0.63,0.85
			c-0.14,0.24-0.35,0.53-0.63,0.85c0-0.32-0.14-0.81-0.42-1.46l-0.21-0.24c-0.28,0.81-0.52,1.54-0.73,2.19
			c-0.21,0.65-0.45,1.38-0.73,2.19c0.28,0,0.45-0.05,0.53-0.13c0.07-0.09,0.24-0.13,0.52-0.13c-0.28,0.81-0.77,1.38-1.47,1.7
			c-0.7,0.32-1.33,0.32-1.89,0c-0.56-0.49-1.12-0.89-1.68-1.21c-0.14,0-0.21,0.04-0.21,0.12c0,0.08-0.07,0.12-0.21,0.12l-0.21,0.24
			c-0.56-0.16-1.12-0.4-1.68-0.72c-0.7,0-1.12-0.25-1.26-0.74c-0.7-0.81-1.44-1.33-2.2-1.58c-0.77-0.24-1.5-0.53-2.2-0.85
			l-5.03-2.19c-0.28-0.16-0.63-0.28-1.05-0.36c-0.42-0.09-0.77-0.21-1.05-0.37c-1.54-0.81-2.83-1.86-3.88-3.16
			c-1.05-1.29-1.99-2.83-2.83-4.61c-1.4-2.27-2.44-4.7-3.14-7.28c-0.7-2.59-1.4-5.26-2.09-8.02c-0.29-1.46-0.53-2.92-0.73-4.38
			c-0.21-1.46-0.45-2.91-0.74-4.37c-0.28-0.97-0.49-1.9-0.63-2.79c-0.14-0.89-0.35-1.82-0.63-2.79c-0.14-1.29-0.25-2.55-0.32-3.77
			c-0.07-1.21-0.24-2.47-0.52-3.77c-0.28-2.75-0.52-5.5-0.73-8.26c-0.21-2.75-0.39-5.5-0.52-8.26c-0.14-1.29-0.21-2.67-0.21-4.13
			s0-2.83,0-4.13c0.14-2.27,0.24-4.53,0.31-6.8c0.07-2.26,0.24-4.53,0.53-6.8c0.14-1.46,0.35-2.92,0.63-4.37
			c0.28-1.46,0.56-2.83,0.84-4.13c0-0.32,0.07-0.61,0.21-0.85c0.14-0.24,0.21-0.53,0.21-0.85c0-1.94,0.14-3.81,0.42-5.59
			c0.28-1.78,0.63-3.56,1.05-5.34l1.26-5.1c0.14-0.97,0.21-1.94,0.21-2.91c0-0.97,0.14-1.86,0.42-2.67
			c0.28-1.13,0.53-2.19,0.73-3.16c0.21-0.97,0.45-2.03,0.73-3.16c0.28-1.13,0.49-2.31,0.63-3.52c0.14-1.21,0.35-2.47,0.63-3.76
			c0.28-0.65,0.52-1.25,0.73-1.82c0.21-0.57,0.38-1.26,0.53-2.07c0.28-1.13,0.45-2.22,0.52-3.28c0.07-1.05,0.24-2.15,0.52-3.28
			c-0.14,0-0.21-0.04-0.21-0.12c0-0.08-0.07-0.12-0.21-0.12c-0.28,0.81-0.56,1.5-0.84,2.06c-0.28,0.57-0.56,1.17-0.84,1.82
			c-0.7,1.46-1.29,2.88-1.78,4.25c-0.49,1.38-1.02,2.71-1.57,4.01l-3.14,8.74c-0.7,1.78-1.33,3.61-1.89,5.47
			c-0.56,1.86-1.12,3.68-1.68,5.46c-0.7,2.43-1.4,4.86-2.1,7.29c-0.7,2.43-1.39,4.86-2.09,7.29c-0.42,1.46-0.74,2.91-0.94,4.37
			c-0.21,1.46-0.52,2.91-0.94,4.37c-0.42,2.27-0.91,4.46-1.47,6.56c-0.56,2.11-1.05,4.3-1.46,6.56c-0.28,0.82-0.42,1.55-0.42,2.19
			c0,0.64-0.14,1.3-0.42,1.94c-0.28,2.1-0.6,4.17-0.95,6.19c-0.35,2.03-0.67,4.17-0.94,6.44c-0.56,3.4-1.09,6.84-1.57,10.33
			c-0.49,3.48-1.01,7-1.57,10.56c-0.28,1.3-0.52,2.64-0.73,4.01c-0.21,1.38-0.46,2.72-0.74,4.01c-0.42,2.27-0.8,4.41-1.15,6.43
			c-0.35,2.03-0.73,4.17-1.15,6.44c-0.42,1.94-0.84,3.85-1.26,5.71c-0.42,1.86-0.84,3.76-1.26,5.7c-0.14,0.49-0.31,0.94-0.52,1.34
			c-0.21,0.4-0.46,0.85-0.73,1.33l-0.42-0.24v-4.13l-0.21-0.24l-0.63,3.64c-0.28,0.97-0.63,1.54-1.05,1.7
			c-0.7,0.65-1.26,0.17-1.68-1.46c-0.28,0.65-0.49,1.05-0.63,1.21c-0.84-0.48-1.68-0.92-2.52-1.33c-0.84-0.4-1.68-0.77-2.51-1.09
			c-0.29-0.32-0.63-0.49-1.05-0.49c-0.42,0-0.77-0.08-1.05-0.24c-1.26-0.16-2.48-0.28-3.67-0.36c-1.19-0.08-2.34-0.37-3.46-0.85
			c-1.4-0.49-2.72-1.62-3.98-3.4c-2.1-3.07-3.56-6.72-4.4-10.93c-0.42-1.77-0.87-3.65-1.36-5.58c-0.49-1.95-0.94-3.89-1.36-5.83
			c-0.28-1.3-0.45-2.64-0.53-4.01c-0.07-1.37-0.24-2.71-0.52-4.01c-0.28-2.59-0.56-5.1-0.84-7.53c-0.28-2.43-0.49-4.94-0.63-7.53
			c-0.14-1.94-0.18-3.93-0.1-5.95c0.07-2.02,0.1-4.01,0.1-5.95c0.14-2.59,0.24-5.1,0.31-7.53c0.07-2.43,0.24-4.93,0.53-7.53
			c0.14-1.29,0.28-2.46,0.42-3.52c0.14-1.05,0.34-2.22,0.63-3.52l0.63-6.56c0.28-1.46,0.52-2.87,0.73-4.25
			c0.21-1.38,0.45-2.79,0.73-4.25c0.28-1.3,0.45-2.63,0.52-4.01c0.07-1.37,0.25-2.71,0.53-4.01c0.28-1.78,0.56-3.48,0.84-5.1
			c0.28-1.62,0.56-3.32,0.84-5.1c0.28-1.78,0.53-3.48,0.74-5.1c0.21-1.62,0.45-3.32,0.73-5.1c0.28-2.1,0.52-4.17,0.73-6.19
			c0.21-2.02,0.45-4.09,0.74-6.19c0.14-1.29,0.24-2.47,0.32-3.52c0.07-1.05,0.17-2.22,0.32-3.52c-0.14,0-0.29-0.08-0.42-0.24
			c-0.28,0.82-0.63,1.62-1.05,2.43c-0.41,0.81-0.77,1.62-1.05,2.43c-0.7,1.94-1.46,3.88-2.3,5.83c-0.84,1.94-1.61,3.97-2.31,6.07
			c-0.56,1.78-1.05,3.56-1.46,5.35c-0.42,1.79-0.91,3.56-1.47,5.34c-0.28,1.46-0.56,2.95-0.84,4.49c-0.28,1.54-0.7,3.03-1.25,4.49
			c-0.84,2.43-1.47,4.9-1.89,7.41c-0.42,2.52-0.91,5.07-1.47,7.65l-2.51,10.93c-0.42,2.76-0.84,5.47-1.26,8.14
			c-0.42,2.67-0.84,5.38-1.26,8.14c-0.42,2.11-0.77,4.22-1.05,6.32c-0.28,2.11-0.56,4.22-0.84,6.31c-0.28,0.82-0.45,1.54-0.52,2.19
			c-0.07,0.65-0.18,1.37-0.31,2.19c-0.28,3.24-0.6,6.43-0.94,9.59c-0.35,3.17-0.67,6.36-0.94,9.6l-1.89,18.23
			c-0.28,2.27-0.45,4.53-0.52,6.8c-0.07,2.27-0.18,4.54-0.32,6.8c0,0.48,0.07,1.01,0.21,1.58c0.14,0.57-0.07,1.18-0.63,1.82
			c-0.14-0.32-0.28-0.56-0.42-0.73c-0.14-0.16-0.28-0.4-0.42-0.73c-0.14,0-0.21,0.08-0.21,0.24c0,0.49,0.07,0.82,0.21,0.97
			c0.42,0.97,0.21,1.62-0.63,1.94c-1.12,0.33-2.03,0.49-2.73,0.49c-0.56,0-1.12-0.04-1.68-0.12c-0.56-0.08-1.12-0.12-1.68-0.12
			c-0.42,0-0.84,0.04-1.26,0.12c-0.42,0.08-0.84,0.04-1.26-0.12c-1.12-0.49-1.89-1.38-2.3-2.67c-0.28-0.97-0.56-1.9-0.84-2.79
			c-0.28-0.89-0.56-1.74-0.84-2.56c-0.14-0.16-0.28-0.28-0.42-0.36c-0.14-0.08-0.35-0.28-0.63-0.61c0.14,0.49,0.21,1.14,0.21,1.94
			c0,0.32-0.14,0.65-0.42,0.97c-0.28,0-0.56-0.16-0.84-0.49c-0.28-0.64-0.56-1.29-0.84-1.94c-0.28-0.64-0.56-1.3-0.84-1.94
			c-0.14,0-0.21,0.04-0.21,0.13c0,0.08-0.07,0.12-0.21,0.12c0.14,0.81,0.25,1.5,0.32,2.07c0.07,0.57,0.18,1.25,0.31,2.06
			c-0.7,0.33-1.44,0.12-2.2-0.61c-0.77-0.74-1.29-1.66-1.57-2.8c-0.28-1.29-0.46-2.59-0.52-3.89c-0.07-1.3-0.25-2.59-0.52-3.88
			c0-0.65-0.14-1.46-0.42-2.43c-0.14-1.46-0.21-2.96-0.21-4.5c0-1.53-0.07-3.03-0.21-4.49c0-0.33-0.14-0.97-0.42-1.95v-3.15v-1.22
			c-0.14-1.77-0.25-3.6-0.32-5.46c-0.07-1.86-0.18-3.77-0.31-5.71c-0.28-2.26-0.46-4.49-0.53-6.68c-0.07-2.19-0.18-4.41-0.31-6.68
			c-0.28-2.75-0.45-5.42-0.52-8.02c-0.07-2.59-0.17-5.26-0.31-8.02v-9.96v-1.7v-6.8c0.14-1.13,0.24-2.23,0.31-3.28
			c0.07-1.05,0.18-2.22,0.32-3.52v-0.97v-5.83v-4.61c0.14-1.46,0.28-2.91,0.42-4.37c0.14-1.46,0.28-3,0.42-4.62
			c0.14-1.94,0.21-3.92,0.21-5.95c0-2.02,0.07-4.08,0.21-6.19c0.14-2.1,0.28-4.17,0.42-6.19c0.13-2.02,0.28-4.09,0.42-6.19
			c0.14-0.65,0.21-1.7,0.21-3.16c0.28-1.78,0.45-3.52,0.52-5.22c0.07-1.7,0.17-3.44,0.32-5.22c0.14-1.29,0.21-2.63,0.21-4.01
			c0-1.37,0-2.71,0-4.01c0.14-2.27,0.28-4.53,0.42-6.8c0.14-2.27,0.28-4.53,0.42-6.8c0-0.81-0.04-1.54-0.1-2.19
			c-0.07-0.65-0.11-1.29-0.11-1.94c0-0.49,0.14-0.89,0.41-1.22c0.14-0.32,0.31-0.48,0.52-0.48c0.2,0,0.45-0.16,0.73-0.49
			c0,0.33,0.14,0.81,0.41,1.46v0.73l0.21,0.24C21.5,22.11,21.59,21.78,21.66,21.46z M19.91,71.5h0.42c0.14-0.32,0.21-0.73,0.21-1.22
			l0.63-10.2l0.63-15.3c0.14-1.13,0.21-2.23,0.21-3.28c0-1.05,0-2.15,0-3.28c0.14-2.43,0.24-4.82,0.31-7.17
			c0.07-2.35-0.24-4.65-0.94-6.92c-0.14,2.11-0.21,4.21-0.21,6.32c0,2.1,0,4.21,0,6.32c0,2.43,0,4.9,0,7.41
			c0,2.51-0.07,4.98-0.21,7.41c-0.14,2.59-0.25,5.1-0.32,7.53c-0.07,2.43-0.24,4.94-0.52,7.53c0,0.81,0,1.62,0,2.43
			C20.12,69.88,20.05,70.69,19.91,71.5z M24.32,41.62c-0.28,0-0.42-0.08-0.42-0.24l-0.63,29.88h0.21c0.28-5.02,0.45-9.96,0.52-14.82
			C24.07,51.58,24.17,46.64,24.32,41.62z M31.86,51.09h-0.63c0,6.64,0.03,13.24,0.11,19.8c0.07,6.56,0.17,13.16,0.31,19.8h0.21
			V51.09z M36.05,99.44c0.28-0.97,0.49-2.83,0.63-5.59c0.14-2.75,0.21-6.03,0.21-9.84c0-3.8-0.04-7.81-0.11-12.03
			c-0.07-4.21-0.18-8.22-0.31-12.02c-0.14-3.8-0.35-7.16-0.63-10.08c-0.28-2.92-0.56-4.94-0.84-6.07
			c0.28,9.23,0.49,18.46,0.63,27.69C35.78,80.73,35.91,90.05,36.05,99.44z M67.92,189.56c0.13,0,0.24-0.04,0.31-0.12
			c0.07-0.08,0.17-0.12,0.31-0.12c-1.54-5.34-2.69-10.81-3.46-16.4c-0.77-5.59-1.44-11.21-1.99-16.88c-0.84,0.32-1.05,0.89-0.63,1.7
			c0.28,0.97,0.42,1.78,0.42,2.43c0.14,1.29,0.21,2.47,0.21,3.53c0,1.05,0.07,2.14,0.21,3.27c0.28,1.62,0.52,3.16,0.73,4.61
			c0.21,1.46,0.45,3.01,0.73,4.62c0.28,1.79,0.59,3.45,0.94,4.98c0.35,1.54,0.66,3.12,0.94,4.74c0.14,0.64,0.31,1.26,0.52,1.82
			C67.39,188.31,67.64,188.91,67.92,189.56z M67.92,174.5h0.42c-0.28-1.79-0.49-3.49-0.63-5.11c-0.14-1.62-0.28-3.32-0.42-5.1h-0.63
			L67.92,174.5z M67.5,93.36l0.21,0.24c0.14-0.81,0.24-1.66,0.32-2.55c0.07-0.89,0.24-1.74,0.52-2.55h-0.42
			c-0.14,0.81-0.25,1.62-0.31,2.43C67.74,91.75,67.64,92.55,67.5,93.36z M69.39,80h0.42c0-0.32,0.07-0.69,0.21-1.09
			c0.14-0.4,0.21-0.85,0.21-1.33c0.28-3.24,0.59-6.48,0.94-9.72c0.35-3.24,0.66-6.48,0.94-9.72c0.14-1.3,0.17-2.51,0.11-3.64
			c-0.07-1.13-0.11-2.35-0.11-3.64c0-0.32-0.14-0.65-0.42-0.97h-0.42c0.14,5.18,0.03,10.24-0.31,15.18
			C70.61,70,70.08,74.98,69.39,80z M74.84,56.92h-0.42c-0.14,2.76-0.28,5.39-0.42,7.9c-0.15,2.51-0.35,5.14-0.63,7.9h0.42
			c0.28-2.75,0.49-5.38,0.63-7.9C74.55,62.31,74.7,59.68,74.84,56.92z M76.09,162.84c0.14,3.08,0.31,6.11,0.52,9.11
			c0.21,3,0.52,5.95,0.94,8.87h0.42c-0.28-2.92-0.59-5.87-0.94-8.87C76.69,168.95,76.37,165.92,76.09,162.84z M78.82,97.49h-0.21
			c-0.28,1.3-0.46,2.47-0.53,3.52c-0.07,1.06-0.18,2.23-0.31,3.52h0.21c0.28-1.13,0.45-2.27,0.52-3.4
			C78.57,100,78.68,98.79,78.82,97.49z M79.45,90.45h0.21c0.28-2.27,0.53-4.49,0.73-6.68c0.21-2.19,0.45-4.41,0.73-6.68
			c0.28-2.27,0.45-4.46,0.52-6.56c0.07-2.1,0.24-4.29,0.52-6.56c-0.14-0.16-0.28-0.24-0.42-0.24c-0.42,4.54-0.81,8.99-1.15,13.36
			C80.25,81.46,79.86,85.92,79.45,90.45z M81.12,133.93c-0.56,3.73-0.77,7.49-0.63,11.3c0.14,3.81,0.14,7.65,0,11.54h0.63V133.93z
			 M81.96,110.61h0.63c0.7-8.58,1.57-17,2.62-25.26c1.05-8.26,1.36-16.76,0.94-25.51c-0.7,8.58-1.4,17.05-2.1,25.38
			C83.35,93.57,82.66,102.03,81.96,110.61z M85.11,149.24c0.13,0,0.21,0.08,0.21,0.24c0.28-1.62,0.49-3.24,0.63-4.86
			c0.14-1.62,0.35-3.24,0.63-4.86h-0.21c-0.14,0.81-0.25,1.62-0.32,2.43c-0.07,0.82-0.18,1.62-0.31,2.43
			c-0.14,0.81-0.25,1.58-0.32,2.31C85.35,147.65,85.24,148.42,85.11,149.24z M102.51,128.82l-0.42,0.98
			c-0.56,2.59-1.05,5.14-1.47,7.65c-0.42,2.51-0.84,5.07-1.26,7.65c-0.42,2.27-0.77,4.58-1.05,6.92c-0.28,2.35-0.56,4.66-0.84,6.92
			c-0.7,3.73-1.33,7.45-1.89,11.17c-0.56,3.73-1.19,7.45-1.89,11.18c-0.14,1.13-0.28,2.23-0.42,3.27c-0.14,1.06-0.35,2.24-0.63,3.53
			l-1.26,7.28c2.65-10.84,4.75-21.86,6.29-33.03C99.22,151.18,100.83,140,102.51,128.82z M95.17,150.21h-0.42
			c-0.28,1.94-0.56,3.89-0.84,5.83c-0.28,1.94-0.56,3.97-0.84,6.07h0.42c0.28-1.94,0.56-3.93,0.84-5.95
			C94.61,154.13,94.89,152.15,95.17,150.21z M102.72,127.61c0.14,0.17,0.28,0.25,0.42,0.25c0.14-0.81,0.25-1.5,0.31-2.07
			c0.07-0.56,0.18-1.17,0.31-1.82c-0.14,0-0.2-0.04-0.2-0.12c0-0.08-0.07-0.12-0.21-0.12c-0.14,0.82-0.24,1.5-0.31,2.07
			C102.96,126.36,102.85,126.97,102.72,127.61z M105.23,114.98c0.28,0,0.49,0.08,0.63,0.24c0.28-1.3,0.56-2.47,0.84-3.52
			c0.28-1.05,0.56-2.14,0.84-3.28l-0.42-0.24c-0.28,1.13-0.6,2.27-0.94,3.4C105.82,112.71,105.51,113.85,105.23,114.98z
			 M122.42,166.72c0-0.81-0.03-1.54-0.1-2.19c-0.07-0.64-0.1-1.38-0.1-2.19l-0.63-7.29c-0.14-1.78-0.28-3.52-0.42-5.22
			c-0.14-1.7-0.28-3.44-0.42-5.22c-0.28-3.4-0.39-6.84-0.32-10.32c0.07-3.49,0.24-6.92,0.52-10.33c0.28-1.78,0.45-3.56,0.53-5.34
			c0.07-1.78,0.24-3.56,0.52-5.34c0.14-1.3,0.28-2.55,0.42-3.77c0.14-1.21,0.28-2.47,0.42-3.76c0.28-1.29,0.42-2.34,0.42-3.16h-0.42
			l-1.89,13.12h-0.21c-0.14,0.49-0.18,1.01-0.11,1.58c0.07,0.57,0.03,1.18-0.1,1.82c-0.28,0.65-0.42,1.3-0.42,1.95s0,1.3,0,1.94
			c0,0.81-0.07,1.5-0.21,2.06c-0.14,0.57-0.21,1.26-0.21,2.06c0,1.62-0.04,3.2-0.1,4.74c-0.07,1.54-0.1,3.12-0.1,4.74
			c0,1.3-0.14,2.55-0.42,3.76c-0.28,1.21-0.08,2.47,0.63,3.76v0.25c-0.14,0.97-0.14,1.94,0,2.92c0.14,0.97,0.28,1.94,0.42,2.91
			c0.14,0.49,0.14,1.01,0,1.58c-0.14,0.57-0.07,1.1,0.21,1.58c0.28,0.65,0.35,1.21,0.21,1.7c-0.14,0.48-0.07,1.13,0.21,1.94
			c0.28,0.49,0.35,1.13,0.21,1.94c-0.14,0.81-0.28,1.62-0.42,2.43c0.28,0.17,0.63,0.24,1.05,0.24c-0.14,0.65-0.35,1.45-0.63,2.43
			c0.7,0,1.01,0.33,0.94,0.97C121.82,165.68,122,166.24,122.42,166.72z M122.21,170.37c0.14-0.15,0.35-0.24,0.63-0.24
			c0-0.48-0.04-0.97-0.1-1.45c-0.08-0.49-0.11-0.98-0.11-1.46h-0.42V170.37z M122.63,176.45c0.84-0.33,1.26-0.57,1.26-0.73
			c0-0.98-0.07-1.7-0.21-2.19h-0.42C123.26,174.34,123.05,175.31,122.63,176.45z M123.47,100.16h0.42c0.28-1.13,0.45-2.27,0.52-3.4
			c0.07-1.13,0.18-2.27,0.31-3.4l0.21,0.24c1.26-6.48,2.51-12.91,3.77-19.31c1.26-6.4,2.44-12.83,3.56-19.31
			c-0.14-0.16-0.28-0.24-0.42-0.24c-0.56,0.65-0.91,1.22-1.05,1.7c-0.42,2.27-0.84,4.58-1.26,6.92c-0.42,2.35-0.77,4.66-1.05,6.92
			c-0.28,1.46-0.67,2.92-1.15,4.37c-0.49,1.46-0.59,3-0.31,4.62v0.49c-0.28,0.65-0.45,1.26-0.52,1.82
			c-0.07,0.57-0.24,1.25-0.53,2.07c-0.42,0.97-0.56,2.03-0.42,3.16c0.14,1.13-0.07,2.27-0.63,3.4c-0.56,0.65-0.84,1.62-0.84,2.92
			c-0.14,1.13-0.25,2.27-0.32,3.4C123.71,97.65,123.61,98.87,123.47,100.16z M124.09,131.74h0.63l1.89-21.86
			c-0.7,3.56-1.26,7.16-1.68,10.81C124.52,124.33,124.23,128.02,124.09,131.74z M130.81,81.7c0-0.16,0.07-0.32,0.21-0.49
			c0.14-0.16,0.21-0.4,0.21-0.73c0.56-2.43,1.05-4.9,1.47-7.41c0.42-2.51,0.84-4.98,1.26-7.41c0.28-1.29,0.45-2.55,0.52-3.77
			c0.07-1.21,0.17-2.47,0.31-3.76c-0.14-0.16-0.28-0.24-0.42-0.24c0,0.33-0.04,0.53-0.1,0.61c-0.07,0.08-0.11,0.21-0.11,0.37
			l-1.89,12.39c-0.28,1.78-0.52,3.52-0.73,5.22C131.33,78.18,131.08,79.92,130.81,81.7c-0.29,0.81-0.53,1.62-0.74,2.43
			c-0.21,0.81-0.1,1.62,0.31,2.43c0.14-0.81,0.21-1.62,0.21-2.43C130.6,83.32,130.66,82.51,130.81,81.7z M136.46,131.74
			c0.14-1.62,0.24-3.16,0.31-4.62c0.07-1.46,0.18-2.92,0.32-4.37c0.69-6.15,1.36-12.27,1.99-18.34c0.63-6.07,1.29-12.18,1.99-18.34
			c0.28-2.27,0.53-4.49,0.74-6.68c0.21-2.19,0.45-4.41,0.73-6.68c0.14-0.33,0.17-0.61,0.1-0.85c-0.07-0.24-0.1-0.52-0.1-0.85
			c-0.42,1.3-0.88,3.6-1.36,6.92c-0.49,3.32-0.98,7.17-1.47,11.54c-0.49,4.37-0.98,8.95-1.47,13.73c-0.49,4.78-0.91,9.19-1.26,13.24
			c-0.35,4.05-0.6,7.49-0.73,10.32C136.11,129.6,136.18,131.25,136.46,131.74z M148.41,68.34l-0.42,0.49
			c0.14,1.79-0.04,3.44-0.52,4.98c-0.49,1.54-0.73,3.2-0.73,4.98c-0.14,1.46-0.31,2.88-0.52,4.25c-0.21,1.38-0.45,2.8-0.73,4.25
			c-0.14,1.3-0.24,2.47-0.31,3.52c-0.07,1.05-0.18,2.15-0.31,3.28c-0.14,1.46-0.25,2.96-0.32,4.49c-0.07,1.54-0.24,3.04-0.52,4.49
			l-0.62,5.83c-0.14,1.3-0.21,2.47-0.21,3.52c0,1.05,0,2.23,0,3.52c0,1.78-0.11,3.44-0.31,4.98c-0.21,1.54-0.18,3.2,0.1,4.98v1.95
			c-0.14,1.13-0.25,2.18-0.31,3.15c-0.07,0.98-0.18,1.95-0.31,2.92v0.49c0.14,0.81,0.24,1.54,0.31,2.19
			c0.07,0.65,0.11,1.37,0.11,2.19c0,1.46-0.04,2.88-0.11,4.25c-0.07,1.37-0.1,2.79-0.1,4.25v0.48c0.28,0.97,0.42,1.94,0.42,2.92
			c0,0.97-0.14,1.86-0.42,2.67c-0.14,0.32-0.14,0.57,0,0.73c0.14,0.16,0.21,0.4,0.21,0.73c0.14,0.32,0.21,0.57,0.21,0.73
			c0,0.17,0.07,0.41,0.21,0.73c0,0.33,0.03,0.53,0.11,0.61c0.07,0.08,0.11,0.21,0.11,0.36l0.62-0.73c0-0.64-0.03-1.25-0.1-1.82
			c-0.07-0.57-0.1-1.18-0.1-1.82c0-2.76-0.04-5.42-0.11-8.02c-0.07-2.59-0.03-5.26,0.11-8.02c0.14-2.59,0.24-5.18,0.31-7.78
			c0.07-2.59,0.24-5.18,0.53-7.77l0.63-13.11l1.88-18.95l1.26-11.66V68.34z"/>
		<path class="st1" d="M149.09,211.92c-0.4,0-0.78-0.1-1.14-0.31c-0.49-0.42-0.94-0.75-1.38-1.03c-0.06,0.04-0.12,0.07-0.2,0.1
			l-0.3,0.35l-0.31-0.09c-0.55-0.16-1.12-0.39-1.68-0.71c-1.03-0.04-1.42-0.58-1.56-0.98c-0.62-0.69-1.26-1.15-1.91-1.36
			c-0.78-0.25-1.54-0.54-2.26-0.88l-5.02-2.18c-0.28-0.16-0.58-0.26-0.94-0.33c-0.5-0.1-0.89-0.24-1.21-0.43
			c-1.57-0.82-2.93-1.93-4.01-3.28c-1.06-1.31-2.04-2.89-2.9-4.71c-1.39-2.25-2.47-4.75-3.17-7.37c-0.72-2.65-1.42-5.35-2.1-8.02
			c-0.28-1.43-0.52-2.87-0.74-4.43c-0.21-1.48-0.46-2.94-0.73-4.35c-0.28-0.95-0.49-1.91-0.63-2.81c-0.13-0.85-0.34-1.77-0.61-2.73
			c-0.16-1.44-0.27-2.68-0.33-3.87c-0.07-1.2-0.25-2.44-0.51-3.69c-0.28-2.69-0.52-5.4-0.74-8.33c-0.21-2.79-0.39-5.57-0.52-8.28
			c-0.14-1.25-0.21-2.66-0.21-4.15v-4.13c0.14-2.25,0.24-4.47,0.31-6.82c0.07-2.31,0.25-4.61,0.53-6.84
			c0.14-1.5,0.36-2.98,0.63-4.41c0.28-1.45,0.55-2.81,0.83-4.09c0.01-0.39,0.1-0.74,0.28-1.04c0.09-0.17,0.14-0.37,0.14-0.6
			c0-1.97,0.14-3.88,0.42-5.67c0.27-1.76,0.63-3.57,1.06-5.38l1.26-5.11c0.13-0.91,0.19-1.87,0.19-2.79c0-1.03,0.15-1.99,0.45-2.84
			c0.26-1.08,0.51-2.13,0.72-3.1c0.21-0.98,0.46-2.04,0.73-3.17c0.27-1.1,0.48-2.27,0.62-3.46c0.14-1.2,0.35-2.49,0.64-3.81
			c0.3-0.73,0.54-1.33,0.75-1.89c0.19-0.52,0.36-1.19,0.5-1.98c0.27-1.11,0.44-2.19,0.52-3.23c0.02-0.31,0.05-0.63,0.09-0.95
			c-0.24,0.49-0.47,1-0.7,1.54c-0.69,1.45-1.28,2.86-1.77,4.22c-0.49,1.38-1.03,2.74-1.59,4.04l-3.13,8.71
			c-0.7,1.79-1.33,3.61-1.88,5.44c-0.56,1.87-1.12,3.69-1.68,5.47l-0.3,1.05c-0.6,2.08-1.19,4.15-1.79,6.23l-2.09,7.29
			c-0.42,1.45-0.73,2.9-0.93,4.31c-0.21,1.45-0.53,2.95-0.96,4.44c-0.41,2.22-0.91,4.44-1.47,6.55c-0.54,2.05-1.04,4.25-1.46,6.52
			c-0.28,0.82-0.41,1.5-0.41,2.1c0,0.69-0.14,1.39-0.43,2.07c-0.29,2.17-0.61,4.24-0.94,6.15c-0.35,2.05-0.67,4.21-0.94,6.42
			c-0.57,3.47-1.1,6.94-1.57,10.33c-0.5,3.58-1.04,7.13-1.58,10.57c-0.28,1.31-0.52,2.65-0.73,4.01c-0.21,1.38-0.46,2.74-0.74,4.04
			c-0.42,2.25-0.8,4.39-1.15,6.41c-0.35,2.03-0.74,4.18-1.16,6.45c-0.42,1.96-0.84,3.87-1.26,5.73c-0.41,1.86-0.83,3.76-1.26,5.7
			c-0.16,0.56-0.35,1.04-0.57,1.46c-0.21,0.41-0.46,0.86-0.74,1.35l-0.25,0.43l-1.11-0.63v-0.46c-0.3,0.85-0.66,1.34-1.11,1.56
			c-0.46,0.39-0.86,0.39-1.12,0.31c-0.36-0.1-0.65-0.4-0.9-0.91c-0.09,0.15-0.14,0.21-0.17,0.24l-0.27,0.32l-0.36-0.21
			c-0.76-0.44-1.58-0.87-2.49-1.32c-0.81-0.39-1.65-0.75-2.47-1.08l-0.11-0.04l-0.08-0.09c-0.2-0.22-0.41-0.32-0.68-0.32
			c-0.47,0-0.87-0.08-1.21-0.26c-1.19-0.15-2.38-0.27-3.55-0.34c-1.24-0.09-2.46-0.39-3.63-0.89c-1.46-0.51-2.88-1.71-4.19-3.57
			c-2.13-3.11-3.63-6.85-4.49-11.12c-0.41-1.75-0.87-3.62-1.36-5.56c-0.46-1.82-0.91-3.73-1.36-5.85c-0.28-1.31-0.46-2.68-0.54-4.09
			c-0.07-1.35-0.24-2.67-0.51-3.93c-0.29-2.64-0.57-5.15-0.85-7.58c-0.28-2.42-0.49-4.96-0.63-7.56c-0.14-1.94-0.18-3.96-0.1-5.99
			c0.07-2.08,0.1-4.08,0.1-5.93c0.14-2.58,0.24-5.11,0.31-7.55c0.07-2.5,0.25-5.04,0.53-7.57c0.14-1.29,0.28-2.47,0.42-3.53
			c0.14-1.07,0.35-2.26,0.63-3.56l0.62-6.5c0.3-1.57,0.53-2.96,0.74-4.28c0.21-1.41,0.46-2.84,0.74-4.27
			c0.28-1.27,0.45-2.6,0.51-3.94c0.07-1.4,0.25-2.77,0.54-4.09c0.28-1.76,0.55-3.46,0.84-5.08c0.28-1.61,0.56-3.31,0.84-5.09
			c0.28-1.78,0.52-3.47,0.73-5.09c0.24-1.82,0.48-3.49,0.74-5.12c0.29-2.21,0.53-4.23,0.73-6.17c0.21-2.01,0.46-4.1,0.74-6.21
			c0.13-1.27,0.24-2.44,0.31-3.49c0.04-0.56,0.08-1.16,0.14-1.79c-0.11,0.24-0.23,0.48-0.35,0.72c-0.42,0.83-0.76,1.6-1.02,2.36
			c-0.72,2-1.5,3.97-2.32,5.87c-0.82,1.9-1.59,3.93-2.29,6.03c-0.55,1.78-1.04,3.56-1.45,5.3c-0.4,1.73-0.89,3.49-1.48,5.38
			c-0.27,1.4-0.54,2.9-0.82,4.43c-0.28,1.54-0.71,3.08-1.28,4.58c-0.82,2.36-1.45,4.82-1.87,7.31c-0.4,2.44-0.88,4.95-1.47,7.68
			l-2.52,10.94c-0.41,2.72-0.83,5.43-1.25,8.1c-0.42,2.67-0.84,5.38-1.26,8.13c-0.43,2.15-0.78,4.27-1.05,6.31l-0.86,6.41
			c-0.27,0.77-0.43,1.47-0.5,2.08c-0.07,0.64-0.17,1.37-0.32,2.22c-0.26,3.07-0.57,6.21-0.94,9.56c-0.35,3.15-0.67,6.38-0.94,9.59
			l-1.89,18.23c-0.28,2.25-0.45,4.52-0.52,6.76c-0.08,2.36-0.18,4.65-0.32,6.82c0,0.42,0.07,0.91,0.2,1.43
			c0.18,0.74-0.07,1.51-0.74,2.27l-0.52,0.59l-0.01-0.02c-0.02,0.12-0.05,0.24-0.1,0.35c-0.18,0.41-0.52,0.72-1.04,0.92
			c-1.19,0.35-2.16,0.52-2.9,0.52c-0.61,0-1.2-0.04-1.75-0.13c-0.92-0.13-1.84-0.18-2.77,0c-0.5,0.1-1.02,0.05-1.53-0.15
			c-1.27-0.55-2.14-1.55-2.6-2.98c-0.28-0.98-0.56-1.91-0.84-2.79c-0.24-0.75-0.47-1.48-0.71-2.17c0,0.14,0.01,0.29,0.01,0.44
			c0,0.45-0.18,0.88-0.54,1.3l-0.15,0.17h-0.23c-0.44,0-0.85-0.22-1.22-0.67l-0.08-0.12c-0.25-0.57-0.49-1.14-0.74-1.71l-0.1-0.24
			c0,0.04,0.01,0.08,0.01,0.12c0.07,0.56,0.17,1.24,0.31,2.04l0.06,0.38l-0.35,0.16c-0.62,0.29-1.6,0.41-2.76-0.7
			c-0.84-0.8-1.41-1.83-1.71-3.04c-0.29-1.31-0.47-2.65-0.54-3.98c-0.07-1.26-0.24-2.54-0.51-3.81l-0.01-0.1
			c0-0.6-0.13-1.37-0.4-2.29c-0.16-1.57-0.23-3.1-0.23-4.64c0-1.49-0.07-2.98-0.21-4.44c0-0.23-0.07-0.69-0.4-1.86l-0.02-0.14v-4.37
			c-0.14-1.78-0.25-3.62-0.32-5.45c-0.07-1.82-0.17-3.74-0.31-5.69c-0.28-2.2-0.46-4.47-0.53-6.7c-0.07-2.18-0.18-4.42-0.31-6.67
			c-0.27-2.71-0.45-5.42-0.53-8.03c-0.07-2.61-0.18-5.31-0.31-8l0-18.49c0.14-1.16,0.25-2.25,0.31-3.31
			c0.07-1.06,0.18-2.24,0.32-3.54l0-11.36c0.14-1.51,0.28-2.96,0.42-4.42c0.14-1.46,0.28-2.99,0.42-4.61
			c0.14-1.96,0.21-3.95,0.21-5.91c0-2.04,0.07-4.13,0.21-6.22c0.14-2.1,0.28-4.17,0.42-6.2l0.42-6.19c0.14-0.69,0.21-1.72,0.21-3.12
			c0.28-1.82,0.45-3.56,0.52-5.25c0.07-1.71,0.17-3.47,0.32-5.24c0.14-1.32,0.21-2.65,0.21-3.97v-4.01l0.84-13.63
			c0-0.75-0.04-1.47-0.1-2.1c-0.07-0.64-0.11-1.31-0.11-2c0-0.57,0.16-1.07,0.48-1.48c0.28-0.59,0.67-0.72,0.95-0.72
			c-0.01,0,0.11-0.04,0.34-0.31l0.88-1.04V20c0,0.1,0.02,0.3,0.14,0.65c0.03-0.09,0.07-0.18,0.1-0.27c0.01-0.25,0.06-0.7,0.45-0.93
			c0,0,0.09-0.07,0.21-0.37l0.46-1.1l0.47,1.1c0.16,0.38,0.22,0.47,0.23,0.48c0.07,0.08,0.16,0.21,0.32,0.57
			c0.04,0.03,0.07,0.06,0.1,0.1c0.04-0.12,0.05-0.19,0.05-0.23v-0.73l4.63,1.85c0.59-0.35,1.1-0.47,1.56-0.37
			c0.38,0.08,0.71,0.32,0.94,0.69c0.36,0.56,0.85,0.99,1.45,1.27c0.97,0.57,1.6,1.27,1.91,2.1c0.28,0.73,0.56,1.51,0.84,2.32
			c1.12,3.44,1.82,7.32,2.1,11.54c0.27,3.63,0.62,7.46,1.04,11.4c0.41,3.8,0.76,7.65,1.05,11.43c0.14,2.65,0.21,5.24,0.21,7.69
			c0,2.53,0.07,5.1,0.21,7.62c0,1.35,0.04,2.69,0.11,4.01c0.03,0.58,0.07,1.18,0.11,1.78c0.06-0.16,0.12-0.32,0.18-0.48
			c0.35-0.88,0.66-1.73,0.94-2.53c0.56-1.78,1.05-3.57,1.46-5.29c0.43-1.82,0.93-3.63,1.48-5.38l1.25-3.89
			c0.42-1.29,0.84-2.59,1.26-3.89c0.71-1.81,1.41-3.56,2.11-5.26c0.7-1.7,1.4-3.43,2.1-5.22c0.69-1.6,1.36-3.22,1.99-4.85
			c0.63-1.62,1.38-3.19,2.24-4.68c1.11-1.77,2.17-3.6,3.14-5.45c1.01-1.91,2.4-3.56,4.13-4.9c2.39-1.55,4.86-1.98,7.37-1.3
			c1.43,0.33,2.86,0.93,4.22,1.75c1.23,0.75,2.52,0.97,3.95,0.67c0.52-0.2,1.14-0.05,1.78,0.47c0.45,0.37,0.9,0.61,1.39,0.75
			c0.99,0.38,1.71,0.99,2.19,1.81c0.42,0.73,0.9,1.49,1.45,2.28c0.33,0.38,0.51,0.85,0.51,1.38c0,0.29,0.09,0.53,0.3,0.76l0.08,0.12
			c1.55,3.28,2.52,6.64,2.88,10c0.35,3.34,0.6,6.83,0.74,10.36c0,1.61,0.04,3.24,0.1,4.85c0.07,1.65,0.03,3.31-0.11,4.92l-0.42,6.79
			c-0.14,2.29-0.36,4.59-0.64,6.83c-0.14,1.27-0.24,2.65-0.31,4.09c-0.07,1.43-0.18,2.91-0.32,4.39c-0.28,1.81-0.46,3.58-0.52,5.32
			c-0.07,1.82-0.25,3.64-0.53,5.41c-0.13,1.54-0.24,3.13-0.31,4.68c-0.07,1.55-0.18,3.23-0.32,5l0,2.39
			c-0.28,2.33-0.46,4.56-0.52,6.7c-0.02,0.67-0.05,1.36-0.08,2.04c0.17-0.98,0.36-1.95,0.55-2.89c0.35-1.7,0.67-3.45,0.94-5.2
			l-0.01-0.41l1.9-10.3c0.29-1.01,0.53-1.98,0.74-2.93c0.21-0.98,0.46-2.03,0.74-3.17l1.68-6.8l1.27-4.39
			c0.4-1.39,0.75-2.85,1.04-4.33l1.91-5.89c0.13-0.48,0.28-0.94,0.43-1.35c0.14-0.41,0.29-0.79,0.43-1.12
			c0.21-0.49,0.32-0.65,0.39-0.73c0.01-0.01,0.07-0.1,0.24-0.48c0.4-1.57,0.86-3.17,1.35-4.69c0.51-1.6,1.05-3.12,1.59-4.52
			c0.12-0.43,0.22-0.92,0.28-1.46c0.07-0.63,0.27-1.22,0.59-1.77c0.25-0.76,0.65-1.65,1.14-2.54c0.47-0.85,0.85-1.68,1.12-2.47
			c0.72-1.35,1.35-2.72,1.89-4.15c0.58-1.49,1.22-2.9,1.92-4.19c0.7-1.3,1.44-2.63,2.21-4.01c0.78-1.4,1.69-2.69,2.69-3.85
			c1.96-2.27,4.24-4.5,6.78-6.62c1.48-1.03,3.02-1.71,4.62-2.05c1.58-0.33,3.19-0.41,4.78-0.25c1.17-0.05,2.4,0.44,3.6,1.31
			c1.08,0.62,2.24,1.31,3.43,2.04c1.18,0.73,2.34,1.41,3.45,2.06c0.59,0.27,1.58,0.42,2.9,0.42l0.11,0.01
			c2.23,0.52,4.1,2.07,5.57,4.61c0.25,0.44,0.54,0.81,0.85,1.1c0.36,0.34,0.69,0.68,0.98,1.01l0.07,0.11
			c2.4,4.92,3.41,10.64,2.98,17.01c-0.14,1.9-0.21,3.89-0.21,5.92c0,1.99-0.07,4-0.21,5.98c-0.14,1.67-0.25,3.26-0.31,4.73
			c-0.07,1.57-0.25,3.18-0.53,4.8c-0.28,2.58-0.52,5.19-0.73,7.73c-0.21,2.62-0.39,5.23-0.52,7.76l-0.84,10.58
			c-0.29,3.48-0.56,7.08-0.84,10.81c-0.14,1.57-0.21,3.15-0.21,4.7v4.74c0,2.28-0.04,4.65-0.11,7.06c-0.07,2.34-0.1,4.7-0.1,7.03
			c0,3.17-0.04,6.24-0.1,9.12c-0.07,2.96,0.03,6.01,0.31,9.05c0.28,2.25,0.46,4.47,0.53,6.59c0.07,2.12,0.24,4.31,0.52,6.52
			c0.27,2.72,0.73,5.43,1.35,8.08c0.63,2.67,1.23,5.41,1.78,8.15c0.14,0.83,0.28,1.59,0.42,2.31c0.14,0.73,0.28,1.5,0.42,2.32
			c0.37,1.27,0.93,2.15,1.64,2.56c0.77,0.36,1.34,0.89,1.67,1.55c0.3,0.6,0.52,1.34,0.67,2.19c0.01,0.73,0.04,1.36,0.11,1.97
			c0.07,0.71,0.04,1.39-0.11,2.1c-0.16,0.55-0.39,1.08-0.68,1.6l-0.98,1.71h-1.84v-0.5c0-0.27,0.02-0.5,0.06-0.71
			c-0.13,0.18-0.28,0.37-0.44,0.56l-0.88,1v-1.33c0-0.07-0.01-0.18-0.06-0.36c-0.12,0.35-0.23,0.69-0.33,1
			c-0.13,0.4-0.27,0.83-0.43,1.3c0.09-0.01,0.18-0.01,0.27-0.01h0.7l-0.23,0.66c-0.33,0.94-0.91,1.61-1.73,1.99
			C149.88,211.82,149.47,211.92,149.09,211.92z M146.52,209.46h0.13l0.12,0.07c0.59,0.35,1.18,0.77,1.75,1.27
			c0.33,0.18,0.8,0.18,1.35-0.08c0.27-0.12,0.49-0.29,0.68-0.5c-0.02,0-0.04,0-0.05,0h-0.7l0.23-0.66c0.28-0.81,0.52-1.54,0.73-2.18
			c0.21-0.65,0.45-1.38,0.73-2.2l0.28-0.81l0.87,1.02c0.07,0.17,0.14,0.33,0.19,0.48c0.15-0.25,0.36-0.53,0.65-0.86l0.39-0.44
			l0.38,0.45c0.21,0.26,0.32,0.53,0.32,0.8c0,0.36-0.04,0.68-0.12,0.98c-0.02,0.07-0.04,0.14-0.05,0.22h0.22l0.69-1.21
			c0.26-0.45,0.45-0.91,0.58-1.35c0.12-0.57,0.15-1.16,0.09-1.75c-0.07-0.65-0.11-1.32-0.11-2c-0.13-0.67-0.32-1.32-0.58-1.84
			c-0.23-0.46-0.63-0.83-1.23-1.11c-0.99-0.57-1.7-1.65-2.15-3.23c-0.15-0.86-0.29-1.63-0.43-2.36c-0.14-0.73-0.28-1.5-0.42-2.31
			c-0.55-2.71-1.15-5.45-1.77-8.11c-0.63-2.69-1.1-5.45-1.37-8.2c-0.28-2.22-0.46-4.45-0.53-6.6c-0.07-2.08-0.25-4.28-0.52-6.52
			c-0.28-3.1-0.39-6.18-0.32-9.18c0.07-2.87,0.1-5.93,0.1-9.1c0-2.34,0.03-4.71,0.1-7.06c0.07-2.39,0.11-4.76,0.11-7.03v-4.74
			c0-1.59,0.07-3.2,0.21-4.78c0.28-3.72,0.55-7.32,0.84-10.81l0.84-10.57c0.13-2.53,0.31-5.15,0.52-7.77
			c0.21-2.55,0.45-5.17,0.73-7.79c0.28-1.61,0.45-3.18,0.52-4.71c0.06-1.48,0.17-3.08,0.31-4.76c0.14-1.95,0.21-3.94,0.21-5.91
			c0-2.05,0.07-4.06,0.21-5.99c0.41-6.17-0.55-11.7-2.86-16.44c-0.26-0.29-0.55-0.59-0.87-0.89c-0.38-0.36-0.73-0.8-1.03-1.33
			c-1.31-2.27-2.95-3.66-4.87-4.12c-1.46,0-2.54-0.18-3.31-0.53c-1.16-0.67-2.32-1.36-3.51-2.09c-1.19-0.73-2.34-1.41-3.45-2.06
			c-1.07-0.77-2.1-1.15-3.11-1.15c-1.54-0.16-3.04-0.08-4.52,0.23c-1.47,0.31-2.89,0.94-4.22,1.86c-2.46,2.06-4.7,4.24-6.63,6.48
			c-0.96,1.11-1.82,2.35-2.57,3.68c-0.76,1.37-1.5,2.71-2.2,4c-0.68,1.25-1.31,2.62-1.86,4.07c-0.56,1.46-1.2,2.87-1.91,4.19
			c-0.26,0.77-0.66,1.65-1.16,2.55c-0.46,0.85-0.84,1.68-1.12,2.48c-0.29,0.52-0.45,0.98-0.5,1.48c-0.07,0.59-0.18,1.14-0.33,1.66
			c-0.55,1.42-1.07,2.92-1.58,4.51c-0.48,1.51-0.94,3.09-1.36,4.71c-0.23,0.57-0.34,0.72-0.42,0.81l0,0c0,0-0.07,0.09-0.23,0.47
			c-0.13,0.31-0.27,0.67-0.4,1.06c-0.14,0.4-0.28,0.83-0.41,1.31l-1.9,5.85c-0.28,1.45-0.63,2.94-1.04,4.36L92.6,91.8l-1.67,6.79
			c-0.28,1.13-0.52,2.17-0.73,3.14c-0.21,0.97-0.46,1.96-0.74,2.95l-1.88,10.16l0.01,0.39c-0.28,1.84-0.6,3.6-0.96,5.32
			c-0.35,1.67-0.66,3.42-0.94,5.2c-0.28,0.99-0.41,1.76-0.41,2.36v1.33l-0.88-1c-0.06-0.07-0.09-0.08-0.09-0.08h-0.53l0.08-0.52
			c0.14-2.26,0.24-4.5,0.32-6.67c0.07-2.17,0.24-4.43,0.53-6.73l0-2.36c0.14-1.8,0.25-3.47,0.32-5c0.07-1.57,0.18-3.17,0.32-4.76
			c0.28-1.77,0.46-3.55,0.53-5.32c0.06-1.77,0.24-3.59,0.53-5.4c0.13-1.44,0.24-2.9,0.31-4.32c0.07-1.46,0.17-2.86,0.32-4.16
			c0.28-2.23,0.49-4.51,0.63-6.78l0.42-6.8c0.14-1.59,0.17-3.2,0.1-4.81c-0.07-1.63-0.11-3.27-0.11-4.88
			c-0.14-3.49-0.39-6.95-0.73-10.27c-0.34-3.23-1.27-6.46-2.76-9.62c-0.33-0.4-0.5-0.86-0.5-1.37c0-0.28-0.1-0.53-0.3-0.77
			c-0.59-0.85-1.09-1.64-1.52-2.39c-0.36-0.63-0.9-1.07-1.64-1.36c-0.57-0.16-1.16-0.48-1.71-0.93c-0.51-0.42-0.78-0.32-0.86-0.29
			c-1.74,0.37-3.31,0.11-4.75-0.77c-1.28-0.77-2.6-1.33-3.95-1.64c-2.27-0.62-4.41-0.24-6.54,1.15c-1.59,1.23-2.88,2.76-3.82,4.55
			c-0.99,1.88-2.05,3.73-3.17,5.5c-0.82,1.43-1.55,2.96-2.16,4.53c-0.64,1.64-1.31,3.28-2,4.88c-0.7,1.77-1.4,3.51-2.1,5.21
			c-0.7,1.7-1.4,3.44-2.1,5.21c-0.41,1.27-0.83,2.57-1.25,3.86l-1.25,3.88c-0.55,1.73-1.04,3.51-1.46,5.31
			c-0.41,1.75-0.91,3.56-1.48,5.38c-0.29,0.83-0.6,1.69-0.96,2.59c-0.34,0.86-0.65,1.78-0.93,2.75l-0.73,2.53l-0.25-2.62
			c-0.14-1.46-0.25-2.9-0.32-4.27c-0.07-1.33-0.11-2.69-0.11-4.03c-0.14-2.52-0.21-5.1-0.21-7.65c0-2.44-0.07-5-0.21-7.63
			c-0.29-3.76-0.64-7.6-1.05-11.39c-0.43-3.95-0.78-7.8-1.05-11.44c-0.27-4.14-0.96-7.94-2.05-11.3c-0.27-0.8-0.55-1.56-0.82-2.28
			c-0.24-0.62-0.71-1.14-1.44-1.57c-0.74-0.34-1.37-0.89-1.83-1.62c-0.12-0.19-0.23-0.23-0.3-0.25c-0.14-0.03-0.46-0.02-1.06,0.39
			l-0.26,0.18l-0.68-0.4l-3.12-1.21c-0.11,0.3-0.3,0.65-0.56,1.05l-0.66,1.03l-0.25-1.2c-0.06-0.3-0.12-0.47-0.15-0.57h-0.1
			l-0.13-0.3c-0.11-0.27-0.18-0.39-0.21-0.45c-0.02,0.02-0.05,0.04-0.07,0.05c0.02,0.01,0,0.08,0,0.2l-0.04,0.19
			c-0.13,0.31-0.22,0.6-0.28,0.88l0,0c-0.08,0.38-0.19,0.73-0.34,1.07l-0.22,0.5l0.26,0.85c0.71,2.31,1.04,4.69,0.97,7.09
			c-0.07,2.35-0.18,4.76-0.31,7.18l0,3.25c0,1.06-0.07,2.19-0.21,3.34L21.67,60.1l-0.63,10.21c0,0.51-0.08,0.99-0.25,1.38L20.66,72
			h-1.34l0.1-0.58c0.13-0.79,0.2-1.58,0.2-2.35v-2.43c0.28-2.59,0.45-5.11,0.52-7.54c0.07-2.43,0.18-4.97,0.32-7.54
			c0.14-2.48,0.21-4.97,0.21-7.38V30.45c0-2.14,0.07-4.28,0.21-6.35l0.09-1.34l-0.32-0.38v-0.81c-0.1-0.24-0.18-0.46-0.25-0.66
			c-0.12,0.05-0.25,0.08-0.37,0.08c0.01,0.01-0.03,0.06-0.08,0.18l-0.08,0.12c-0.2,0.24-0.3,0.53-0.3,0.9c0,0.65,0.03,1.28,0.1,1.89
			c0.07,0.67,0.11,1.43,0.11,2.24l-0.84,13.63l0,3.98c0,1.36-0.07,2.72-0.21,4.06c-0.14,1.74-0.24,3.49-0.31,5.19
			c-0.07,1.72-0.25,3.5-0.53,5.28c0.01,1.4-0.07,2.49-0.21,3.18l-0.41,6.12c-0.14,2.03-0.28,4.09-0.42,6.19
			c-0.14,2.07-0.21,4.14-0.21,6.16c0,1.98-0.07,4-0.21,5.99c-0.14,1.63-0.28,3.17-0.42,4.63c-0.14,1.46-0.28,2.92-0.42,4.37l0,11.37
			c-0.14,1.35-0.24,2.51-0.32,3.56c-0.07,1.08-0.18,2.19-0.32,3.31l0,18.4c0.14,2.68,0.24,5.38,0.31,8
			c0.07,2.59,0.25,5.28,0.52,7.98c0.14,2.27,0.24,4.52,0.31,6.71c0.07,2.2,0.25,4.43,0.52,6.63c0.14,1.99,0.25,3.92,0.32,5.75
			c0.07,1.81,0.17,3.64,0.32,5.44l0,4.34c0.29,1.03,0.42,1.65,0.42,2.02c0.14,1.45,0.21,2.97,0.21,4.49c0,1.5,0.07,3,0.21,4.45
			c0.27,0.9,0.41,1.74,0.42,2.42c0.28,1.3,0.45,2.62,0.52,3.91c0.07,1.28,0.24,2.56,0.51,3.81c0.25,1.03,0.72,1.87,1.43,2.54
			c0.56,0.53,0.98,0.65,1.29,0.61c-0.1-0.63-0.19-1.18-0.24-1.65c-0.07-0.57-0.17-1.24-0.31-2.05l-0.1-0.58h0.44
			c0.11-0.14,0.3-0.24,0.57-0.24h0.33l1.07,2.48c0.23,0.54,0.47,1.09,0.7,1.63c0.06,0.07,0.13,0.14,0.21,0.19
			c0.08-0.14,0.12-0.27,0.12-0.4c0-0.76-0.06-1.36-0.19-1.8l-0.63-2.18l1.49,1.72c0.36,0.42,0.48,0.49,0.5,0.5
			c0.21,0.13,0.39,0.28,0.55,0.47l0.1,0.17c0.28,0.82,0.56,1.67,0.84,2.57c0.28,0.89,0.56,1.82,0.85,2.8
			c0.37,1.15,1.03,1.92,2.02,2.35c0.32,0.12,0.63,0.16,0.96,0.09c1.05-0.2,2.07-0.15,3.11,0c0.51,0.08,1.05,0.12,1.61,0.12
			c0.65,0,1.52-0.16,2.59-0.47c0.21-0.08,0.37-0.21,0.44-0.36c0.08-0.19,0.05-0.48-0.1-0.85c-0.19-0.26-0.27-0.65-0.27-1.23
			c0-0.44,0.29-0.74,0.71-0.74h0.33l0.13,0.31c0.15,0.36,0.27,0.52,0.33,0.59c0.03,0.04,0.06,0.07,0.09,0.11
			c0.12-0.27,0.16-0.52,0.1-0.76c-0.15-0.59-0.22-1.17-0.22-1.7c0.13-2.18,0.24-4.47,0.32-6.82c0.07-2.27,0.25-4.58,0.53-6.84
			l1.89-18.22c0.27-3.21,0.59-6.44,0.94-9.6c0.36-3.34,0.67-6.47,0.94-9.58c0.14-0.84,0.25-1.56,0.32-2.2
			c0.07-0.67,0.25-1.43,0.53-2.25l0.83-6.26c0.27-2.06,0.63-4.2,1.05-6.35c0.42-2.73,0.84-5.44,1.25-8.12
			c0.42-2.67,0.84-5.38,1.26-8.14l2.52-10.97c0.58-2.7,1.06-5.2,1.46-7.62c0.43-2.55,1.07-5.07,1.91-7.49
			c0.55-1.46,0.97-2.94,1.24-4.42c0.28-1.54,0.56-3.04,0.84-4.5c0.6-1.92,1.08-3.66,1.47-5.36c0.41-1.76,0.91-3.57,1.47-5.38
			c0.71-2.13,1.49-4.19,2.33-6.12c0.81-1.87,1.58-3.83,2.29-5.8c0.28-0.8,0.63-1.61,1.07-2.49c0.41-0.8,0.75-1.57,1.02-2.37
			l0.29-0.84l0.57,0.68h0.56l-0.02,0.62c-0.14,1.27-0.24,2.44-0.31,3.5c-0.07,1.07-0.18,2.24-0.32,3.54
			c-0.28,2.11-0.53,4.19-0.73,6.19c-0.2,1.94-0.44,3.97-0.73,6.21c-0.26,1.63-0.5,3.29-0.73,5.1c-0.21,1.63-0.46,3.33-0.74,5.11
			c-0.28,1.79-0.56,3.49-0.84,5.11c-0.28,1.62-0.56,3.32-0.84,5.1c-0.28,1.29-0.45,2.61-0.52,3.96c-0.07,1.4-0.25,2.77-0.53,4.09
			c-0.27,1.4-0.51,2.83-0.73,4.22c-0.2,1.34-0.44,2.73-0.74,4.27l-0.62,6.51c-0.29,1.33-0.49,2.5-0.63,3.54
			c-0.14,1.05-0.28,2.22-0.42,3.51c-0.27,2.5-0.45,5.02-0.52,7.49c-0.07,2.45-0.18,4.99-0.31,7.55c0,1.84-0.04,3.84-0.1,5.94
			c-0.07,2-0.03,3.98,0.1,5.9c0.14,2.59,0.35,5.11,0.63,7.51c0.28,2.43,0.56,4.94,0.84,7.53c0.27,1.26,0.45,2.63,0.52,4.04
			c0.07,1.36,0.24,2.68,0.52,3.94c0.46,2.1,0.9,4,1.36,5.81c0.49,1.94,0.95,3.81,1.37,5.59c0.83,4.15,2.28,7.77,4.33,10.76
			c1.19,1.68,2.44,2.76,3.73,3.21c1.09,0.47,2.2,0.75,3.33,0.83c1.21,0.08,2.46,0.2,3.7,0.36l0.19,0.06c0.2,0.12,0.46,0.17,0.8,0.17
			c0.51,0,0.96,0.19,1.33,0.56c0.82,0.32,1.64,0.68,2.45,1.07c0.77,0.38,1.47,0.74,2.12,1.11c0.08-0.16,0.2-0.4,0.34-0.74l0.58-1.34
			l0.36,1.41c0.32,1.24,0.62,1.36,0.63,1.36c0,0,0.07,0,0.23-0.15l0.16-0.1c0.09-0.04,0.42-0.24,0.75-1.37l0.8-4.64l1.02,1.19v3.39
			c0.07-0.13,0.14-0.27,0.21-0.39c0.19-0.36,0.35-0.78,0.49-1.25c0.42-1.92,0.83-3.82,1.25-5.68c0.42-1.86,0.84-3.77,1.26-5.71
			c0.42-2.25,0.8-4.4,1.15-6.42c0.35-2.02,0.73-4.17,1.15-6.44c0.28-1.29,0.52-2.64,0.73-4c0.21-1.38,0.46-2.74,0.73-4.04
			c0.53-3.4,1.06-6.95,1.57-10.52c0.47-3.4,1-6.88,1.57-10.34c0.27-2.2,0.59-4.38,0.94-6.44c0.33-1.92,0.65-3.99,0.94-6.18
			l0.04-0.13c0.25-0.58,0.38-1.17,0.38-1.75c0-0.71,0.15-1.5,0.45-2.36c0.41-2.22,0.9-4.44,1.45-6.52c0.55-2.08,1.04-4.28,1.46-6.52
			c0.42-1.49,0.74-2.94,0.94-4.35c0.21-1.45,0.53-2.94,0.96-4.44l2.09-7.29c0.6-2.08,1.2-4.15,1.79-6.23l0.31-1.06
			c0.56-1.79,1.12-3.61,1.68-5.47c0.55-1.85,1.19-3.71,1.9-5.51l3.14-8.73c0.56-1.31,1.09-2.65,1.57-4.01
			c0.49-1.39,1.1-2.84,1.8-4.3c0.27-0.64,0.56-1.25,0.84-1.83c0.27-0.54,0.53-1.19,0.81-2l0.12-0.34h0.36
			c0.28,0,0.47,0.11,0.59,0.26l0.4,0.04l-0.09,0.57c-0.27,1.09-0.44,2.17-0.51,3.19c-0.08,1.1-0.26,2.23-0.54,3.37
			c-0.15,0.83-0.33,1.53-0.54,2.12c-0.21,0.58-0.46,1.19-0.74,1.84c-0.25,1.2-0.46,2.45-0.59,3.62c-0.14,1.24-0.36,2.44-0.64,3.59
			c-0.28,1.13-0.52,2.18-0.73,3.15c-0.21,0.97-0.46,2.04-0.74,3.17c-0.28,0.8-0.4,1.62-0.4,2.55c0,0.98-0.07,1.98-0.21,2.98
			l-1.27,5.15c-0.42,1.78-0.77,3.57-1.04,5.3c-0.27,1.74-0.41,3.59-0.41,5.51c0,0.4-0.09,0.77-0.27,1.09
			c-0.1,0.17-0.15,0.37-0.15,0.61l-0.01,0.11c-0.28,1.29-0.56,2.66-0.84,4.12c-0.27,1.39-0.48,2.85-0.62,4.33
			c-0.28,2.22-0.45,4.49-0.52,6.77c-0.07,2.36-0.18,4.59-0.31,6.82l0,4.1c0,1.46,0.07,2.83,0.21,4.07c0.14,2.72,0.31,5.5,0.52,8.28
			c0.22,2.92,0.46,5.61,0.73,8.25c0.27,1.24,0.45,2.53,0.53,3.79c0.07,1.17,0.17,2.4,0.31,3.74c0.27,0.92,0.48,1.88,0.62,2.77
			c0.13,0.86,0.34,1.78,0.62,2.73c0.28,1.46,0.53,2.94,0.75,4.44c0.22,1.54,0.46,2.97,0.73,4.36c0.67,2.64,1.37,5.33,2.09,7.98
			c0.68,2.53,1.72,4.94,3.08,7.15c0.85,1.8,1.78,3.31,2.8,4.56c1,1.24,2.25,2.26,3.72,3.03c0.24,0.14,0.54,0.25,0.92,0.32
			c0.47,0.09,0.86,0.23,1.19,0.41l4.98,2.16c0.69,0.32,1.41,0.6,2.15,0.83c0.85,0.27,1.67,0.85,2.43,1.73l0.1,0.19
			c0.03,0.11,0.1,0.37,0.78,0.37h0.13l0.12,0.07c0.42,0.24,0.85,0.44,1.26,0.58l0.15-0.17h0.07
			C146.06,209.56,146.25,209.46,146.52,209.46z M21.7,28.08c-0.02,0.79-0.03,1.57-0.03,2.36v4.6c0.06-1.35,0.11-2.69,0.15-4.01
			C21.85,30.05,21.81,29.06,21.7,28.08z M91.88,195.51l-0.98-0.2l1.26-7.29c0.27-1.26,0.48-2.43,0.63-3.51
			c0.14-1.04,0.28-2.14,0.42-3.27c0.71-3.79,1.34-7.55,1.89-11.19c0.57-3.78,1.2-7.55,1.89-11.19c0.27-2.23,0.55-4.54,0.83-6.89
			c0.28-2.33,0.63-4.67,1.05-6.95c0.42-2.58,0.84-5.13,1.26-7.64c0.42-2.54,0.92-5.12,1.47-7.68l0.74-1.75c0,0-0.01-0.01-0.01-0.01
			l-0.15-0.19l0.05-0.24c0.14-0.63,0.24-1.22,0.31-1.77c0.07-0.57,0.18-1.26,0.32-2.09l0.07-0.42h0.42c0.28,0,0.48,0.11,0.59,0.26
			l0.38,0.03l-0.07,0.56c-0.14,0.64-0.24,1.24-0.31,1.78c-0.07,0.57-0.18,1.27-0.32,2.09l-0.07,0.42h-0.42c-0.02,0-0.03,0-0.05,0
			L103,128.9c-1.67,11.13-3.29,22.41-4.82,33.52C96.64,173.58,94.52,184.71,91.88,195.51z M67.92,190.06h-0.33l-0.13-0.3
			c-0.29-0.65-0.54-1.27-0.75-1.85c-0.21-0.57-0.4-1.2-0.54-1.88c-0.29-1.65-0.61-3.24-0.94-4.74c-0.35-1.52-0.67-3.21-0.95-5.01
			c-0.25-1.44-0.49-2.95-0.74-4.62c-0.21-1.45-0.46-2.98-0.73-4.6c-0.15-1.15-0.22-2.27-0.22-3.36c0-1.01-0.07-2.14-0.21-3.47
			c0-0.65-0.14-1.42-0.4-2.34c-0.24-0.45-0.3-0.93-0.14-1.35c0.16-0.42,0.52-0.74,1.07-0.95l0.61-0.24l0.06,0.66
			c0.55,5.59,1.22,11.27,1.99,16.86c0.76,5.53,1.92,11.02,3.44,16.33l0.18,0.64h-0.66C68.5,189.89,68.28,190.06,67.92,190.06z
			 M67.85,189.11C67.85,189.11,67.85,189.11,67.85,189.11C67.85,189.11,67.85,189.11,67.85,189.11z M78.53,181.32h-1.4l-0.06-0.43
			c-0.42-2.93-0.73-5.93-0.94-8.9c-0.21-3.04-0.39-6.11-0.52-9.12l1-0.07c0.28,3.07,0.59,6.13,0.94,9.1c0.35,3,0.67,5.98,0.94,8.88
			L78.53,181.32z M121.77,177.32l0.39-1.05c0.4-1.07,0.6-1.99,0.6-2.74v-0.5h1.3l0.1,0.37c0.15,0.55,0.23,1.3,0.23,2.32
			c0,0.49-0.51,0.78-1.57,1.2L121.77,177.32z M68.92,175h-1.44L66.1,163.8h1.65l0.04,0.46c0.14,1.78,0.28,3.48,0.42,5.1
			c0.14,1.63,0.35,3.34,0.63,5.07L68.92,175z M121.71,171.68v-4.97h0.08c-0.33-0.51-0.46-1.1-0.39-1.74c0.02-0.15,0-0.28-0.04-0.32
			c-0.02-0.02-0.11-0.09-0.4-0.09h-0.66l0.18-0.64c0.21-0.73,0.37-1.34,0.49-1.85c-0.26-0.05-0.49-0.14-0.69-0.26l-0.29-0.18
			l0.48-2.77c0.12-0.69,0.07-1.23-0.15-1.61c-0.35-0.99-0.43-1.74-0.26-2.33c0.1-0.37,0.04-0.83-0.19-1.36
			c-0.32-0.54-0.41-1.19-0.24-1.9c0.12-0.48,0.12-0.92,0-1.32l-0.43-2.98c-0.14-1.02-0.14-2.04,0-3.06l0-0.04
			c-0.71-1.36-0.92-2.71-0.62-4.01c0.27-1.18,0.41-2.41,0.41-3.65c0-1.72,0.03-3.28,0.1-4.76c0.07-1.55,0.1-3.13,0.1-4.72
			c0-0.87,0.07-1.58,0.23-2.18c0.13-0.53,0.19-1.18,0.19-1.94v-1.94c0-0.72,0.15-1.44,0.46-2.14c0.1-0.49,0.13-1.05,0.07-1.56
			c-0.08-0.62-0.04-1.22,0.12-1.78l0.11-0.36h0.15l1.89-13.12h1.35v0.5c0,0.84-0.14,1.91-0.43,3.26c-0.13,1.25-0.27,2.5-0.41,3.72
			c-0.14,1.21-0.28,2.47-0.42,3.76c-0.28,1.8-0.45,3.58-0.52,5.31c-0.07,1.8-0.25,3.61-0.53,5.4c-0.27,3.32-0.45,6.78-0.52,10.26
			c-0.07,3.45,0.03,6.91,0.31,10.27c0.14,1.79,0.28,3.52,0.42,5.22l1.04,12.51c0,0.85,0.04,1.57,0.1,2.17
			c0.07,0.66,0.11,1.41,0.11,2.23h0.21v0.5c0,0.49,0.03,0.94,0.1,1.39c0.07,0.52,0.11,1.03,0.11,1.53v0.5h-0.5
			c-0.08,0-0.2,0.01-0.26,0.08L121.71,171.68z M121.58,163.64c0.06,0.02,0.11,0.04,0.16,0.07c-0.01-0.18-0.02-0.37-0.02-0.57
			C121.68,163.3,121.63,163.47,121.58,163.64z M121.09,161.07c0.14,0.04,0.3,0.05,0.49,0.05h0.02l-0.17-2L121.09,161.07z
			 M121.07,154.95c-0.01,0.09-0.03,0.17-0.06,0.25c-0.11,0.38-0.04,0.95,0.2,1.64c0.01,0.01,0.01,0.02,0.02,0.04L121.07,154.95z
			 M119.92,138.14c-0.07,0.79-0.19,1.57-0.37,2.34c-0.26,1.09-0.06,2.24,0.58,3.41l0.06,0.11v0.37c-0.14,0.99-0.14,1.92,0,2.85
			l0.42,2.91c0.14,0.5,0.15,1.12-0.01,1.76c-0.11,0.45-0.06,0.85,0.16,1.21c0.09,0.21,0.16,0.4,0.21,0.59l-0.3-3.83
			c-0.14-1.7-0.28-3.44-0.42-5.22C120.07,142.51,119.96,140.33,119.92,138.14z M120.34,125.41c-0.1,0.48-0.15,1.05-0.15,1.71
			c0,0.17,0,0.33,0,0.5C120.23,126.88,120.28,126.15,120.34,125.41z M120.93,119.43c-0.22,0.58-0.32,1.11-0.32,1.63v1.75
			C120.76,121.68,120.87,120.55,120.93,119.43z M93.92,162.61H92.5l0.07-0.57c0.28-2.11,0.55-4.13,0.84-6.08
			c0.23-1.62,0.46-3.24,0.7-4.86l0.2-1.4h1.43l-0.08,0.57c-0.28,1.94-0.56,3.92-0.84,5.95c-0.28,2.02-0.56,4.01-0.84,5.95
			L93.92,162.61z M142.88,158.6v-1.35c-0.13-0.2-0.2-0.45-0.21-0.87c-0.14-0.34-0.21-0.61-0.21-0.84c0-0.01,0-0.14-0.17-0.53
			l-0.04-0.2c0-0.19-0.03-0.34-0.09-0.41c-0.18-0.21-0.35-0.6-0.07-1.25c0.24-0.72,0.38-1.57,0.38-2.47c0-0.92-0.13-1.85-0.4-2.78
			l-0.02-0.14v-0.48c0-1.49,0.04-2.92,0.1-4.27c0.07-1.43,0.11-2.85,0.11-4.23c0-0.76-0.03-1.47-0.1-2.13
			c-0.07-0.63-0.17-1.35-0.31-2.15l-0.01-0.57c0.15-1.07,0.25-2.01,0.31-2.96c0.07-0.96,0.17-2.03,0.32-3.18l0-1.89
			c-0.28-1.74-0.32-3.46-0.1-5.05c0.21-1.53,0.31-3.18,0.31-4.91v-3.52c0-1.09,0.07-2.29,0.22-3.58l0.62-5.83
			c0.28-1.46,0.45-2.95,0.52-4.46c0.07-1.49,0.17-3.01,0.32-4.52c0.14-1.13,0.24-2.22,0.31-3.26c0.07-1.12,0.18-2.32,0.31-3.54
			c0.29-1.51,0.54-2.93,0.74-4.27c0.21-1.36,0.38-2.78,0.52-4.22c0-1.78,0.25-3.51,0.76-5.08c0.46-1.46,0.63-3.07,0.5-4.79
			l-0.02-0.21l1.44-1.65v10.57l-1.26,11.71l-1.88,18.94l-0.63,13.09c-0.28,2.56-0.46,5.16-0.53,7.76c-0.07,2.6-0.18,5.23-0.31,7.79
			c-0.14,2.76-0.18,5.45-0.11,7.98c0.07,2.64,0.11,5.34,0.11,8.03c0,0.66,0.03,1.24,0.1,1.76c0.07,0.59,0.11,1.22,0.11,1.88v0.18
			L142.88,158.6z M143.25,154.72c0.14,0.35,0.21,0.62,0.21,0.83c0,0.01,0,0.06,0.03,0.15c-0.02-0.32-0.04-0.63-0.08-0.93
			c-0.07-0.56-0.11-1.18-0.11-1.88c0-0.14,0-0.29,0-0.43c-0.07,0.37-0.17,0.73-0.28,1.08c-0.09,0.21-0.08,0.27-0.08,0.27
			C143.13,154.01,143.23,154.33,143.25,154.72z M143.04,147.71c0.09,0.33,0.17,0.65,0.23,0.98c-0.02-1.28-0.04-2.55-0.08-3.81
			c-0.02-0.69-0.03-1.39-0.03-2.1c0,0.1-0.01,0.2-0.01,0.29c-0.07,1.33-0.1,2.76-0.1,4.22V147.71z M147.92,74.05
			c-0.45,1.45-0.68,3.04-0.68,4.73c-0.14,1.51-0.32,2.95-0.53,4.33c-0.2,1.35-0.45,2.79-0.74,4.27c-0.13,1.17-0.23,2.35-0.31,3.46
			c-0.07,1.06-0.18,2.17-0.32,3.31c-0.14,1.48-0.25,2.98-0.31,4.46c-0.07,1.57-0.25,3.1-0.53,4.57l-0.62,5.79
			c-0.14,1.25-0.21,2.42-0.21,3.47v3.52c0,1.77-0.11,3.47-0.32,5.04c-0.2,1.49-0.17,3.12,0.1,4.83l0.01,2.03
			c-0.14,1.19-0.25,2.24-0.32,3.19c-0.07,0.96-0.17,1.93-0.32,2.95l0,0.42c0.13,0.74,0.24,1.48,0.31,2.13c0.05,0.49,0.08,1,0.1,1.54
			c0.02-0.42,0.04-0.85,0.06-1.27c0.14-2.56,0.24-5.17,0.31-7.76c0.07-2.63,0.25-5.25,0.53-7.81l0.63-13.08l1.89-18.97l1.26-11.66
			L147.92,74.05z M81.62,157.26h-1.64l0.02-0.52c0.13-3.86,0.13-7.73,0-11.51c-0.14-3.81,0.07-7.64,0.63-11.39l0.99,0.07V157.26z
			 M85.11,149.74h-0.59l0.1-0.58c0.14-0.82,0.24-1.58,0.31-2.28c0.07-0.75,0.18-1.54,0.32-2.35c0.14-0.79,0.24-1.58,0.31-2.39
			c0.07-0.8,0.17-1.61,0.32-2.47l0.07-0.41h1.23l-0.1,0.59c-0.28,1.58-0.49,3.2-0.63,4.82c-0.14,1.63-0.36,3.28-0.63,4.9l-0.99-0.08
			C84.82,149.58,84.95,149.74,85.11,149.74z M136.82,133.38l-0.79-1.39c-0.23-0.4-0.47-1.36-0.27-5.25
			c0.13-2.8,0.37-6.19,0.73-10.34c0.35-4.13,0.78-8.59,1.26-13.25c0.53-5.18,1.01-9.67,1.47-13.73c0.49-4.36,0.98-8.25,1.47-11.56
			c0.5-3.38,0.95-5.67,1.38-7l0.98-3v3.16c0,0.28,0.03,0.52,0.08,0.71c0.1,0.34,0.06,0.71-0.1,1.12c-0.26,2.1-0.5,4.26-0.72,6.6
			c-0.21,2.15-0.45,4.4-0.74,6.69c-0.66,5.84-1.32,11.84-1.99,18.33c-0.6,5.81-1.27,11.99-1.99,18.34c-0.14,1.4-0.24,2.86-0.32,4.34
			c-0.08,1.52-0.18,3.08-0.31,4.64L136.82,133.38z M125.18,132.24h-1.6l0.02-0.52c0.13-3.66,0.42-7.39,0.84-11.09
			c0.41-3.64,0.98-7.29,1.68-10.85l0.99,0.14L125.18,132.24z M106.14,116.31l-0.66-0.76c-0.05-0.06-0.18-0.07-0.25-0.07h-0.64
			l0.15-0.62c0.29-1.16,0.61-2.31,0.95-3.43c0.33-1.09,0.65-2.23,0.94-3.37l0.16-0.64l1.32,0.76l-0.09,0.36
			c-0.28,1.14-0.56,2.23-0.84,3.29c-0.28,1.05-0.56,2.23-0.83,3.5L106.14,116.31z M83.05,111.11h-1.63l0.04-0.54
			c0.7-8.58,1.39-17.04,2.1-25.39c0.69-8.33,1.4-16.8,2.1-25.38l1,0.02c0.42,8.72,0.1,17.34-0.95,25.59
			c-1.04,8.21-1.92,16.71-2.62,25.24L83.05,111.11z M85.8,70.24c-0.42,5.05-0.83,10.06-1.25,15.03c-0.12,1.38-0.23,2.76-0.35,4.15
			c0.17-1.38,0.33-2.76,0.51-4.13C85.34,80.38,85.7,75.35,85.8,70.24z M78.37,105.04h-1.16l0.06-0.55c0.14-1.29,0.24-2.45,0.31-3.5
			c0.07-1.08,0.25-2.29,0.54-3.59l0.09-0.39h1.17l-0.06,0.55c-0.14,1.23-0.24,2.45-0.31,3.62c-0.07,1.17-0.25,2.34-0.54,3.49
			L78.37,105.04z M35.6,102.8l-0.47-31.29c-0.14-9.37-0.36-18.69-0.63-27.69l-0.14-4.71l1.13,4.57c0.28,1.15,0.56,3.16,0.85,6.15
			c0.28,2.9,0.49,6.3,0.63,10.11c0.14,3.84,0.24,7.89,0.31,12.03c0.07,4.26,0.11,8.31,0.11,12.04s-0.07,7.05-0.21,9.86
			c-0.14,2.82-0.36,4.69-0.65,5.7L35.6,102.8z M35.87,57.45c0.11,4.64,0.19,9.34,0.27,14.04l0.24,15.88
			c0.01-1.08,0.02-2.2,0.02-3.37c0-3.72-0.04-7.77-0.11-12.02c-0.07-4.13-0.18-8.18-0.31-12.01C35.94,59.11,35.91,58.27,35.87,57.45
			z M124.28,100.66h-1.37l0.06-0.55c0.14-1.25,0.24-2.47,0.31-3.62c0.07-1.12,0.18-2.28,0.32-3.43c0-1.32,0.3-2.39,0.91-3.13
			c0.49-1.02,0.68-2.05,0.55-3.06c-0.15-1.21,0-2.36,0.46-3.42c0.25-0.74,0.42-1.4,0.49-1.93c0.07-0.58,0.24-1.21,0.52-1.86v-0.38
			c-0.29-1.61-0.17-3.24,0.34-4.77c0.48-1.44,0.86-2.89,1.14-4.31c0.27-2.16,0.62-4.5,1.05-6.92c0.42-2.35,0.84-4.66,1.26-6.93
			c0.17-0.6,0.54-1.22,1.16-1.94l0.15-0.17h0.23c0.2,0,0.5,0.07,0.8,0.42l0.15,0.18l-0.04,0.23c-1.13,6.54-2.33,13.04-3.56,19.33
			c-1.26,6.4-2.52,12.83-3.77,19.31l-0.19,1l-0.14-0.16c-0.08,0.78-0.14,1.52-0.19,2.25c-0.07,1.15-0.25,2.32-0.54,3.49
			L124.28,100.66z M124.62,92.49l0.02,0.02c0.08-0.41,0.16-0.82,0.24-1.22C124.75,91.63,124.66,92.03,124.62,92.49z M126.16,84.67
			c-0.04,0.16-0.07,0.32-0.1,0.49C126.1,85,126.13,84.83,126.16,84.67z M128.71,71.68c-0.25,1.05-0.54,2.09-0.89,3.13
			c-0.37,1.11-0.51,2.28-0.41,3.5c0.27-1.37,0.54-2.75,0.81-4.12C128.38,73.36,128.55,72.53,128.71,71.68z M131.6,55.9
			c-0.15,0.25-0.26,0.47-0.31,0.67c-0.41,2.23-0.83,4.53-1.25,6.88c-0.4,2.24-0.73,4.42-0.99,6.48
			C129.92,65.32,130.78,60.62,131.6,55.9z M68.02,94.74l-1.05-1.24l0.04-0.23c0.13-0.78,0.24-1.58,0.31-2.39
			c0.07-0.79,0.17-1.62,0.32-2.47l0.07-0.42h1.54l-0.23,0.67c-0.27,0.76-0.43,1.58-0.5,2.42c-0.08,0.94-0.18,1.79-0.32,2.6
			L68.02,94.74z M32.36,91.19h-1.2l-0.01-0.49c-0.14-6.75-0.24-13.41-0.31-19.8c-0.07-6.2-0.11-12.68-0.11-19.8v-0.5h1.63V91.19z
			 M80.1,90.95h-1.2l0.05-0.55c0.42-4.51,0.8-9,1.15-13.35c0.32-4.03,0.7-8.41,1.15-13.37l0.04-0.45h0.46
			c0.29,0,0.55,0.14,0.79,0.41l0.15,0.17l-0.03,0.22c-0.28,2.27-0.45,4.46-0.52,6.51c-0.07,2.14-0.25,4.36-0.53,6.61
			c-0.28,2.24-0.52,4.48-0.73,6.67c-0.2,2.11-0.45,4.36-0.74,6.69L80.1,90.95z M130.63,88.12l-0.69-1.33
			c-0.47-0.92-0.59-1.86-0.35-2.78c0.22-0.84,0.46-1.63,0.72-2.41c0.01-0.08,0.02-0.16,0.05-0.24c0.26-1.72,0.49-3.36,0.68-4.94
			c0.22-1.75,0.46-3.52,0.73-5.24l1.89-12.39c-0.01-0.2,0.06-0.42,0.2-0.59c-0.01-0.01,0-0.09,0-0.3v-0.5h0.5
			c0.2,0,0.5,0.07,0.8,0.42l0.14,0.17l-0.02,0.22c-0.14,1.31-0.24,2.56-0.31,3.74c-0.07,1.25-0.25,2.54-0.53,3.84
			c-0.41,2.41-0.83,4.88-1.25,7.39c-0.42,2.48-0.91,4.97-1.46,7.39c-0.01,0.41-0.12,0.75-0.33,0.99c-0.04,0.05-0.06,0.08-0.08,0.11
			c0,0.03-0.01,0.06-0.01,0.09l-0.01,0.05c-0.14,0.78-0.2,1.55-0.2,2.35c0,0.81-0.07,1.65-0.22,2.51L130.63,88.12z M70.3,80.5h-1.49
			l0.08-0.57c0.69-5.02,1.22-10.03,1.56-14.91c0.35-4.92,0.45-10.01,0.31-15.13l-0.01-0.51h1.16l0.15,0.17
			c0.36,0.42,0.54,0.85,0.54,1.29c0,1.29,0.04,2.5,0.1,3.61c0.07,1.17,0.03,2.43-0.11,3.73c-0.27,3.18-0.59,6.45-0.94,9.72
			c-0.35,3.23-0.67,6.49-0.94,9.71c0,0.49-0.08,1-0.24,1.46c-0.12,0.35-0.18,0.66-0.18,0.93V80.5z M74.24,73.21h-1.42l0.06-0.55
			c0.27-2.66,0.48-5.31,0.63-7.87c0.13-2.5,0.27-5.14,0.42-7.89l0.02-0.47h1.42l-0.03,0.53c-0.14,2.76-0.28,5.39-0.42,7.9
			c-0.15,2.54-0.36,5.2-0.63,7.92L74.24,73.21z M23.95,71.76h-1.19l0.64-30.39l1,0.01c0-0.13-0.1-0.25-0.18-0.26h0.51l0.08,0.52
			c-0.14,4.98-0.25,9.97-0.31,14.81c-0.08,4.92-0.25,9.91-0.53,14.84L23.95,71.76z"/>
	</g>
</g>
<g>
	<path class="st2" d="M247.35,81.65c0.88,1.89,1.29,3.68,1.21,5.38c-0.08,1.7-0.19,3.4-0.33,5.1c-0.15,3.21-0.3,6.47-0.44,9.77
		c-0.15,3.31-0.37,6.56-0.66,9.77c-0.44,7.18-0.88,13.98-1.32,20.4c-0.3,4.35-0.66,8.41-1.1,12.18c-0.44,3.78-0.66,7.75-0.66,11.9
		c0,2.65-0.11,5.24-0.33,7.79c-0.22,2.55-0.41,5.15-0.55,7.79c-0.15,2.65-0.22,5.15-0.22,7.51c0,2.36,0,4.86,0,7.51
		c0.14,3.21,0.29,6.37,0.44,9.49c0.14,3.12,0.37,6.19,0.66,9.21c0.14,2.46-0.38,4.15-1.57,5.1c-0.6-1.88-1.01-3.73-1.23-5.52
		c-0.22-1.79-0.41-3.54-0.56-5.24h-0.45c-0.4,1.89-0.6,3.31-0.6,4.25c0,1.51,0.03,2.97,0.11,4.39c0.07,1.42,0.11,2.88,0.11,4.39
		c0,0.38-0.22,0.57-0.66,0.57c-0.3,0.19-0.59,0.33-0.88,0.43c-0.3,0.09-0.66,0.33-1.1,0.71c-0.59-1.32-1.07-2.6-1.43-3.82
		c-0.37-1.23-0.85-2.79-1.43-4.67c0.14,1.51,0.22,2.88,0.22,4.11c0,1.23,0.07,2.41,0.22,3.54c-0.88-0.76-1.77-1.42-2.65-1.98
		s-1.77-1.13-2.65-1.7c-0.15,0-0.22-0.1-0.22-0.28l-0.22-0.28c-1.18,0.38-1.95,0.04-2.32-0.99c-0.37-1.04-0.77-2.03-1.21-2.97
		c0,0.57-0.04,1.04-0.11,1.42c-0.08,0.38-0.19,0.95-0.33,1.7c-1.03-0.94-1.73-2.03-2.1-3.26c-0.37-1.23-0.7-2.5-0.99-3.83h-0.44
		c0.15,0.95,0.26,1.84,0.33,2.69c0.07,0.85,0.18,1.84,0.33,2.97c-2.06-1.51-3.53-3.35-4.41-5.52c-0.88-2.17-1.47-4.58-1.77-7.22
		c-0.3-2.64-0.63-5.29-0.99-7.93c-0.37-2.64-0.7-5.29-0.99-7.93c-0.3,0.76-0.66,1.42-1.1,1.98c-0.44,0.57-0.81,1.13-1.1,1.7
		c-0.74,1.32-1.51,2.6-2.32,3.82c-0.81,1.23-1.58,2.6-2.32,4.11c-1.18,1.89-2.39,3.54-3.64,4.96c-1.25,1.42-2.76,2.69-4.52,3.82
		c-1.18,0.95-2.35,1.8-3.53,2.55c-1.18,0.76-2.36,1.61-3.53,2.55c-1.18,0.95-2.39,1.51-3.64,1.7c-1.25,0.19-2.47,0.1-3.64-0.28
		c-3.53-0.19-6.77-1.42-9.71-3.68c-1.18-0.94-2.47-1.65-3.86-2.12c-1.4-0.47-2.76-0.99-4.08-1.56c-2.94-1.32-5.15-3.3-6.62-5.95
		c-1.47-2.64-2.72-5.67-3.75-9.07c-0.88-3.59-1.51-7.22-1.88-10.91c-0.37-3.68-0.63-7.41-0.77-11.19c-0.15-3.78-0.15-7.74,0-11.9
		c0.14-4.15,0.59-8.31,1.32-12.46c0.44-2.27,0.81-4.44,1.1-6.52c0.29-2.08,0.66-4.25,1.1-6.52c0.29-1.89,0.59-3.73,0.88-5.52
		c0.29-1.79,0.81-3.54,1.54-5.24c1.03-2.64,1.95-5.38,2.76-8.22c0.81-2.83,2.1-5.38,3.86-7.65c0.73-0.75,1.32-1.65,1.77-2.69
		c0.44-1.04,0.96-2.03,1.54-2.97c2.65-4.34,6.03-7.65,10.15-9.92c1.91-1.51,3.86-2.5,5.85-2.97c1.99-0.47,4.08-0.89,6.29-1.28
		c1.47-0.19,2.9-0.23,4.3-0.14c1.4,0.1,2.83,0.33,4.3,0.71c1.18,0.38,2.17,0.81,2.98,1.27c0.81,0.47,1.58,0.9,2.32,1.27
		c1.62,0.57,3.27,1.09,4.97,1.56c1.69,0.47,3.34,1.18,4.97,2.13c1.18,0.38,2.28,0.99,3.31,1.84c1.03,0.85,2.13,1.75,3.31,2.69
		c0.29-0.94,0.62-1.98,0.99-3.12c0.37-1.13,0.77-2.17,1.21-3.12c0.59-1.51,1.18-2.88,1.77-4.11c0.59-1.23,1.47-2.22,2.65-2.97
		c0.29-0.19,0.59-0.38,0.88-0.57c0.29-0.19,0.44,0.19,0.44,1.13c1.32-0.94,2.17-1.37,2.54-1.28c0.37,0.1,1.07,0.81,2.1,2.13
		c0.14-0.19,0.25-0.28,0.33-0.28c0.07,0,0.25-0.19,0.55-0.57v0.57c0.73,0.38,1.32,0.62,1.77,0.71c0.44,0.1,0.81,0.33,1.1,0.71
		c0.44,0.38,0.92,0.62,1.43,0.71c0.51,0.1,0.84,0.33,0.99,0.71c0.29,0.57,0.29,1.23,0,1.98c-0.3,0.76-0.52,1.51-0.66,2.27
		c-0.74,4.72-1.43,9.4-2.1,14.02c-0.66,4.63-1.36,9.4-2.1,14.31c-0.44,3.4-0.74,6.8-0.88,10.2c-0.15,3.4-0.37,6.71-0.66,9.92
		c-0.15,2.27-0.3,4.53-0.44,6.8c-0.15,2.27-0.3,4.44-0.44,6.52c-0.3,2.08-0.52,4.35-0.66,6.8c-0.15,2.46-0.3,4.72-0.44,6.8
		c-0.15,2.83-0.22,5.71-0.22,8.64c0,2.93-0.08,5.9-0.22,8.92c0,2.46,0.03,4.82,0.11,7.08c0.07,2.27,0.11,4.53,0.11,6.8h0.66
		c0-1.51-0.04-2.97-0.11-4.39c-0.08-1.42-0.04-2.78,0.11-4.11c0.15-4.34,0.26-8.59,0.33-12.75c0.07-4.15,0.25-8.31,0.55-12.46
		c0-1.51,0.03-3.12,0.11-4.82c0.07-1.7,0.18-3.3,0.33-4.82c0.3-3.58,0.56-7.27,0.79-11.05c0.23-3.78,0.49-7.55,0.79-11.33
		c0.45-2.83,0.79-5.71,1.01-8.64c0.23-2.93,0.49-5.81,0.79-8.64c0.6-4.15,1.24-8.31,1.92-12.47c0.68-4.15,1.39-8.21,2.15-12.18
		c0.15-0.38,0.3-0.75,0.45-1.13c0.15-0.38,0.3-0.75,0.45-1.13c0.75-1.51,1.5-1.89,2.23-1.13c0.29,0.19,0.44,0.62,0.44,1.27
		c0,0.66,0,1.18,0,1.56c-0.15,1.89-0.3,3.64-0.44,5.24c-0.15,1.61-0.3,3.26-0.44,4.96c-0.15,0.76-0.26,1.42-0.33,1.98
		c-0.08,0.57-0.19,1.23-0.33,1.98c-0.3,2.27-0.55,4.58-0.77,6.94c-0.22,2.36-0.41,4.67-0.55,6.94c-0.3,3.4-0.55,6.8-0.77,10.2
		s-0.48,6.8-0.77,10.2c-0.35,2.08-0.62,4.3-0.8,6.66c-0.18,2.36-0.35,4.58-0.53,6.66c-0.3,3.78-0.55,7.56-0.77,11.33
		c-0.22,3.78-0.48,7.56-0.77,11.33c-0.15,2.27-0.22,4.58-0.22,6.94c0,2.36,0,4.67,0,6.94c0.15,2.65,0.26,5.15,0.33,7.51
		c0.07,2.36,0.18,4.86,0.33,7.51c0,0.38,0.12,0.85,0.36,1.42c0.23,0.57,0.51,1.04,0.83,1.42h0.23c0-0.75,0.04-1.37,0.12-1.84
		c0.08-0.47,0.04-0.89-0.12-1.28c-0.16-5.67-0.2-11.33-0.12-17c0.08-5.67,0.35-11.33,0.83-17c0.31-3.58,0.51-7.22,0.59-10.91
		c0.08-3.68,0.28-7.22,0.59-10.62c0.29-4.34,0.66-8.64,1.1-12.89c0.44-4.25,0.81-8.45,1.1-12.61c0.29-3.58,0.55-7.18,0.77-10.77
		c0.22-3.58,0.48-7.27,0.77-11.05c0.15-1.51,0.15-2.88,0-4.11c-0.15-1.23,0.07-2.5,0.66-3.82C246.98,83.44,247.2,82.59,247.35,81.65
		z M159.73,137.17c0.29-1.7,0.51-3.3,0.66-4.82c0.15-1.51,0.37-3.02,0.66-4.53h-0.88c-0.3,2.65-0.63,5.29-0.99,7.93
		c-0.37,2.65-0.7,5.29-0.99,7.93c-0.44,3.97-0.74,7.89-0.88,11.76c-0.15,3.87,0.15,7.79,0.88,11.76c0.29,1.51,0.48,3.07,0.55,4.67
		c0.07,1.61,0.26,3.17,0.55,4.67h0.44c-0.15-1.7-0.3-3.35-0.44-4.96c-0.15-1.6-0.3-3.16-0.44-4.67c-0.15-1.7-0.22-3.4-0.22-5.1
		c0-1.7,0-3.3,0-4.82c0-1.51,0-3.16,0-4.96c0-1.79,0.07-3.54,0.22-5.24c0.15-1.51,0.29-3.07,0.44-4.67
		C159.44,140.53,159.58,138.87,159.73,137.17z M161.94,147.09c0.29-1.89,0.55-3.83,0.77-5.81c0.22-1.98,0.48-4.2,0.77-6.66h-0.66
		c-0.3,2.27-0.52,4.39-0.66,6.37c-0.15,1.98-0.37,4.02-0.66,6.09H161.94z M170.77,157.85c0-1.13,0.07-2.36,0.22-3.68
		c0.14-1.32,0-2.64-0.44-3.97c-0.15,1.32-0.26,2.65-0.33,3.97c-0.08,1.32-0.11,2.55-0.11,3.68H170.77z M172.09,140.57
		c0.14-1.51,0.51-3.49,1.1-5.95c-0.88,2.65-1.47,5.24-1.77,7.79c-0.3,2.55-0.59,5.15-0.88,7.79c0.14-0.57,0.37-1.04,0.66-1.42
		c0.14-1.51,0.25-2.93,0.33-4.25C171.61,143.22,171.79,141.9,172.09,140.57z M175.84,145.11c-0.15,1.13-0.22,2.79-0.22,4.96
		c0,2.17,0,4.35,0,6.52c0,2.17,0.03,4.21,0.11,6.09c0.07,1.89,0.26,3.12,0.55,3.68c0-6.99,0.29-13.88,0.88-20.68
		c0.59-6.8,1.69-13.6,3.31-20.4c-1.03,3.21-1.99,6.47-2.87,9.77C176.73,138.36,176.14,141.71,175.84,145.11z M208.28,107.14
		c0.59-1.13,0.96-2.31,1.1-3.54c0.15-1.23-0.15-2.5-0.88-3.83c-0.3-0.38-0.44-0.66-0.44-0.85c-0.15-1.13-0.74-1.7-1.77-1.7
		c-2.94,0-5.48,0.85-7.61,2.55c-2.13,1.7-4.16,3.68-6.07,5.95c-1.03,1.32-1.95,2.83-2.76,4.53c-0.81,1.7-1.58,3.4-2.32,5.1
		c-0.74,1.7-1.43,3.4-2.1,5.1c-0.66,1.7-1.21,3.59-1.66,5.67c-0.88,3.02-1.69,6.05-2.43,9.07c-0.74,3.02-1.32,6.14-1.77,9.35
		c-0.3,3.4-0.44,6.75-0.44,10.06c0,3.31,0,6.56,0,9.77c0,1.51,0,3.12,0,4.82c0,1.7,0.07,3.31,0.22,4.82c0,0.38,0.07,0.66,0.22,0.85
		c0.14,0.19,0.37,0.57,0.66,1.13c0.14-0.57,0.37-1.04,0.66-1.42c1.03-2.27,2.1-4.44,3.2-6.52c1.1-2.08,2.1-4.34,2.98-6.8
		c1.47-2.64,2.79-5.48,3.97-8.5c1.18-3.02,2.35-5.85,3.53-8.5c0.59-1.32,1.1-2.69,1.54-4.11c0.44-1.42,0.96-2.88,1.54-4.39
		c0.73-2.08,1.51-4.06,2.32-5.95c0.81-1.89,1.73-3.87,2.76-5.95c1.03-2.64,1.95-5.43,2.76-8.36
		C206.33,112.58,207.25,109.79,208.28,107.14z M219.54,165.5c-0.74,0.76-1.14,2.65-1.21,5.67c-0.08,3.02-0.04,6.23,0.11,9.63
		c0.14,3.4,0.44,6.66,0.88,9.77s0.88,5.05,1.32,5.81c-0.59-4.72-0.96-9.35-1.1-13.88c-0.15-4.53-0.15-9.16,0-13.88V165.5z
		 M223.07,155.02h-0.44v22.1h0.44V155.02z"/>
</g>
<g>
	<path class="st2" d="M262.02,86.92c0.12-0.35,0.24-0.57,0.37-0.66c0.12-0.09,0.18-0.31,0.18-0.66c-0.12-1.41-0.03-2.7,0.28-3.85
		c0.31-1.15,0.65-2.43,1.01-3.85c0.24-1.41,0.8-1.77,1.66-1.06c0.61,0.36,1.29,0.58,2.03,0.66c0.74,0.09,1.35,0.58,1.84,1.46
		c0.12,0.36,0.21,0.58,0.28,0.66c0.06,0.09,0.15,0.31,0.28,0.66l0.55-2.39c0.24,0,0.43,0.05,0.55,0.13
		c0.12,0.09,0.24,0.13,0.37,0.13c0.74-0.35,1.2-0.27,1.38,0.27s0.34,1.06,0.46,1.59c0.25,0.89,0.37,1.68,0.37,2.39
		c0,0.71,0.12,1.51,0.37,2.39c0-0.88,0-1.68,0-2.39c0-0.71,0.06-1.5,0.18-2.39c0.12,0,0.25-0.09,0.37-0.27
		c1.6,6.02,2.61,12.17,3.04,18.45c0.43,6.28,0.77,12.61,1.01,18.98l0.55-0.8c0.86-2.48,1.69-5,2.49-7.57
		c0.8-2.56,1.69-5.09,2.67-7.57c2.82-6.9,6.02-13.01,9.58-18.32c1.11-1.77,2.67-3.01,4.7-3.72c2.03-0.71,3.84-0.62,5.44,0.27
		c1.96,1.06,3.75,1.86,5.34,2.39c0.61,0.18,1.17,0.26,1.66,0.26c0.49,0,0.98,0.09,1.47,0.27c0.49,0,0.86,0.09,1.11,0.27
		c0.74,0.71,1.44,1.42,2.12,2.12c0.67,0.71,1.32,1.59,1.94,2.65c0.12,0.36,0.18,0.62,0.18,0.8c0,0.18,0.06,0.44,0.18,0.8
		c0.61,3.01,1.01,6.02,1.2,9.03c0.18,3.01,0.4,6.02,0.65,9.03c0.12,1.77,0.24,3.54,0.37,5.31c0.12,1.77,0.25,3.63,0.37,5.57
		l0.74-1.59c0.49-1.42,0.95-2.79,1.38-4.12c0.43-1.33,0.95-2.7,1.57-4.11c0.25-0.88,0.58-1.81,1.01-2.79
		c0.43-0.97,0.77-1.99,1.01-3.05c0.61-2.12,1.44-4.11,2.49-5.97c1.04-1.86,2.18-3.58,3.41-5.18c0.98-1.41,2-2.65,3.04-3.72
		c1.04-1.06,2.24-1.95,3.59-2.65c1.11-0.35,2.18-0.44,3.22-0.27c1.04,0.18,2.12,0.36,3.22,0.53c0.74,0.18,1.47,0.31,2.21,0.4
		c0.74,0.09,1.47-0.04,2.21-0.4c0.74-0.35,1.47-0.35,2.21,0c0.74,0.36,1.47,0.8,2.21,1.33c2.46,1.77,4.08,4.21,4.88,7.3
		c0.8,3.1,1.5,6.33,2.12,9.69c0.49,3.54,0.86,7.13,1.11,10.75c0.24,3.63,0.49,7.3,0.74,11.02c0.12,1.42,0.12,2.83,0,4.25
		c-0.12,1.42-0.18,2.83-0.18,4.25v7.96c-0.12,2.48-0.18,4.82-0.18,7.03c0,2.21-0.06,4.56-0.18,7.03c0,7.43-0.18,14.87-0.55,22.3
		c-0.12,2.3-0.25,4.56-0.37,6.77c-0.12,2.21-0.25,4.38-0.37,6.5c-0.12,1.06-0.16,2.08-0.09,3.05c0.06,0.97,0.09,1.9,0.09,2.79v7.43
		c0,1.06,0,2.12,0,3.19c0,1.06-0.06,2.04-0.18,2.92c-0.12,0.53-0.25,1.02-0.37,1.46c-0.12,0.44-0.25,0.93-0.37,1.46
		c-0.12,0-0.22-0.04-0.28-0.13c-0.06-0.09-0.16-0.13-0.28-0.13c-0.12-1.06-0.25-2.12-0.37-3.19c-0.12-1.06-0.25-2.21-0.37-3.45
		c-0.25,1.95-0.34,3.81-0.28,5.58c0.06,1.77-0.22,3.54-0.83,5.31c-0.49-0.36-0.74-0.62-0.74-0.8c-0.25,0.71-0.52,1.33-0.83,1.86
		c-0.31,0.53-0.58,1.06-0.83,1.59l-2.21-2.39v1.33c0,0.53-0.12,0.97-0.37,1.33c-0.12,0-0.25-0.09-0.37-0.27
		c-0.12-0.18-0.31-0.27-0.55-0.27c-0.25,0-0.46-0.04-0.64-0.13c-0.18-0.09-0.4-0.13-0.65-0.13c-0.49-0.18-0.92-0.31-1.29-0.4
		c-0.37-0.09-0.8-0.22-1.29-0.4c-0.25-1.06-0.55-2.12-0.92-3.19h-0.37c0.12,0.53,0.18,1.06,0.18,1.59c0,0.53,0.06,1.06,0.18,1.59
		c-0.62,0-1.11-0.44-1.47-1.33c-0.37-0.89-0.92-2.83-1.66-5.84c0.12,2.12,0.3,4.51,0.55,7.17c-0.86,0.17-1.45-0.09-1.75-0.8
		c-0.31-0.71-0.58-1.42-0.83-2.12c-0.25-1.41-0.49-2.87-0.74-4.38c-0.25-1.5-0.55-2.96-0.92-4.38c-0.74-2.83-1.11-5.62-1.11-8.36
		c0-2.74-0.06-5.53-0.18-8.36c0-1.77-0.09-3.49-0.28-5.18c-0.18-1.68-0.28-3.32-0.28-4.91c0-2.12,0.03-4.2,0.09-6.24
		c0.06-2.03,0.15-4.02,0.28-5.97c0-1.95-0.03-3.85-0.09-5.71c-0.06-1.86-0.03-3.76,0.09-5.71c0-1.95,0.03-3.85,0.09-5.71
		c0.06-1.86,0.15-3.76,0.28-5.71c0.12-1.59,0.18-3.14,0.18-4.65c0-1.5,0.06-2.96,0.18-4.38c0.12-1.24,0.25-2.43,0.37-3.58
		c0.12-1.15,0.24-2.34,0.37-3.58c0.25-2.48,0.43-4.91,0.55-7.3c0.12-2.39,0.3-4.82,0.55-7.3c0-0.17-0.03-0.4-0.09-0.66
		c-0.06-0.27-0.09-0.57-0.09-0.93c-0.25,0.71-0.43,1.29-0.55,1.73c-0.12,0.44-0.25,0.84-0.37,1.19c-0.98,2.83-1.93,5.57-2.86,8.23
		c-0.92,2.66-1.81,5.49-2.67,8.5c-0.62,1.95-1.11,3.85-1.47,5.71c-0.37,1.86-0.74,3.76-1.11,5.71c-0.62,2.48-1.17,4.91-1.66,7.3
		c-0.49,2.39-0.92,4.82-1.29,7.3c-0.37,1.95-0.71,3.98-1.01,6.11c-0.31,2.12-0.58,4.16-0.83,6.11c-0.49,4.07-0.86,8.05-1.11,11.95
		c-0.25,3.89-0.37,7.88-0.37,11.95c0,1.42,0,2.79,0,4.12c0,1.33,0.06,2.7,0.18,4.11c0.12,0.71,0.25,1.29,0.37,1.73
		c0.12,0.44,0.25,1.02,0.37,1.72c0,0.18-0.06,0.4-0.18,0.66c-0.12,0.27-0.25,0.58-0.37,0.93c-0.25-0.35-0.46-0.57-0.65-0.66
		c-0.18-0.09-0.34-0.22-0.46-0.4c-0.25-0.88-0.43-1.68-0.55-2.39c-0.12-0.71-0.25-1.42-0.37-2.12c-0.25,0.89-0.34,1.59-0.28,2.12
		c0.06,0.53,0.4,2.3,1.01,5.31l-3.32,3.98c-0.62-1.95-1.05-3.05-1.29-3.32c-0.25-0.27-0.86-0.31-1.84-0.13
		c0,0.71-0.03,1.42-0.09,2.12c-0.06,0.71-0.03,1.51,0.09,2.39c0,1.06-0.31,1.68-0.92,1.86c-0.99,0.35-1.69,0.35-2.12,0
		c-0.43-0.36-0.77-1.33-1.01-2.92c-0.12-0.53-0.18-1.02-0.18-1.46c0-0.44-0.06-0.93-0.18-1.46c0-0.35-0.06-0.66-0.18-0.93
		c-0.12-0.27-0.25-0.57-0.37-0.93c-0.12,0.18-0.31,0.27-0.55,0.27v6.64c-0.49-0.53-0.98-1.02-1.47-1.46
		c-0.49-0.44-0.98-0.93-1.47-1.46c-0.62-0.53-1.26-1.15-1.93-1.86c-0.68-0.71-1.38-1.24-2.12-1.59c-0.49-0.17-0.86-0.31-1.11-0.4
		c-0.25-0.09-0.43-0.4-0.55-0.93c-0.12-0.88-0.31-2.03-0.55-3.45l-0.55-6.37c-0.74,1.77-0.92,3.54-0.55,5.31
		c0.37,1.77,0.55,3.63,0.55,5.58c-0.49-0.53-0.92-1.02-1.29-1.46c-0.37-0.44-0.74-0.84-1.11-1.2l0.74-0.53
		c-0.74-1.06-1.11-2.3-1.11-3.72c-0.12-0.88-0.18-1.86-0.18-2.92s-0.06-2.03-0.18-2.92l-0.74-1.06c0,0.18-0.03,0.36-0.09,0.53
		c-0.06,0.18-0.09,0.44-0.09,0.8c0,1.77-0.06,3.1-0.18,3.98v5.31c-1.84-1.24-2.95-3.09-3.32-5.58c-0.25-1.59-0.46-3.23-0.65-4.91
		c-0.18-1.68-0.4-3.41-0.65-5.18c-0.25-2.12-0.52-4.25-0.83-6.37c-0.31-2.12-0.52-4.25-0.65-6.37c-0.25-1.95-0.34-3.85-0.28-5.71
		c0.06-1.86,0.09-3.76,0.09-5.71c0.12-1.41,0.18-2.92,0.18-4.51s0.06-3.09,0.18-4.51c0.24-1.95,0.46-3.8,0.64-5.57
		c0.18-1.77,0.4-3.63,0.65-5.57c0.24-1.95,0.49-3.85,0.74-5.71c0.24-1.86,0.49-3.76,0.74-5.71c0.24-1.41,0.46-2.83,0.65-4.25
		c0.18-1.41,0.4-2.83,0.65-4.25c0.12-0.53,0.18-1.06,0.18-1.59s0.06-1.06,0.18-1.59c-0.12-0.17-0.25-0.27-0.37-0.27
		c-0.37,1.06-0.71,2.12-1.01,3.19c-0.31,1.06-0.65,2.21-1.01,3.45c-0.62,1.95-1.2,3.94-1.75,5.97c-0.55,2.04-1.08,4.03-1.57,5.97
		c-0.62,2.12-1.11,4.25-1.47,6.37c-0.37,2.12-0.8,4.25-1.29,6.37c-0.12,0.53-0.25,1.02-0.37,1.46c-0.12,0.44-0.25,0.93-0.37,1.46
		c-0.49,2.66-0.92,5.31-1.29,7.96c-0.37,2.65-0.8,5.31-1.29,7.96c-0.25,1.77-0.52,3.45-0.83,5.04c-0.31,1.59-0.58,3.28-0.83,5.04
		c-0.49,2.83-0.89,5.62-1.2,8.36c-0.31,2.75-0.71,5.53-1.2,8.36c-0.25,1.24-0.58,2.43-1.01,3.58c-0.43,1.15-0.83,2.35-1.2,3.58
		c0-0.17-0.18,0-0.55,0.53c0-1.06-0.06-2.03-0.18-2.92c-0.49,1.77-0.89,2.88-1.2,3.32c-0.31,0.44-0.83,0.84-1.57,1.19
		c-0.12-0.35-0.18-0.66-0.18-0.93c0-0.26-0.06-0.49-0.18-0.66c-0.98,0.36-1.91,0.93-2.76,1.73c-0.86,0.8-1.72,1.64-2.58,2.52
		c-0.25-0.53-0.43-1.02-0.55-1.46c-0.12-0.44-0.31-1.02-0.55-1.73c-0.12,0.53-0.18,1.06-0.18,1.59c-0.12,0.89-0.55,1.15-1.29,0.8
		c-0.62-0.35-1.2-0.66-1.75-0.93s-1.14-0.57-1.75-0.93c-0.25-0.17-0.4-0.35-0.46-0.53c-0.06-0.17-0.22-0.44-0.46-0.8l-0.55,1.59
		c-0.62,0-0.92-0.35-0.92-1.06c0-0.71-0.12-1.33-0.37-1.86c-0.49,0.36-0.8,0.62-0.92,0.8c-0.25,0.89-0.52,1.29-0.83,1.19
		c-0.31-0.09-0.58-0.4-0.83-0.93c-0.25-0.88-0.46-1.73-0.64-2.52c-0.18-0.8-0.4-1.63-0.65-2.52c-0.25-1.95-0.43-3.89-0.55-5.84
		c-0.12-1.95-0.25-3.89-0.37-5.84c-0.25-2.83-0.37-5.62-0.37-8.36c0-2.74-0.06-5.44-0.18-8.1c-0.12-1.24-0.31-2.43-0.55-3.58
		c-0.25-1.15-0.49-2.26-0.74-3.32c-0.12-0.88-0.22-1.63-0.28-2.26c-0.06-0.62-0.16-1.28-0.28-1.99c-0.12-1.41-0.22-2.92-0.28-4.51
		c-0.06-1.59-0.22-3.09-0.46-4.51c-0.12-1.95-0.28-3.85-0.46-5.71c-0.18-1.86-0.28-3.76-0.28-5.71c-0.25-6.01-0.25-12.12,0-18.32
		c0.12-2.65,0.21-5.26,0.28-7.83c0.06-2.56,0.21-5.08,0.46-7.57c0.37-4.78,0.83-9.56,1.38-14.33s1.26-9.46,2.12-14.07
		c0.37-1.94,1.35-3.45,2.95-4.51c-0.12,1.06-0.22,2.08-0.28,3.05c-0.06,0.98-0.16,2.08-0.28,3.32c0.24-0.35,0.43-0.57,0.55-0.66
		c0.12-0.09,0.24-0.31,0.37-0.66c0.12-0.71,0.21-1.41,0.28-2.12c0.06-0.71,0.21-1.5,0.46-2.39c0.12-0.17,0.28-0.31,0.46-0.4
		c0.18-0.09,0.4-0.31,0.65-0.66c0.24,0.89,0.37,1.42,0.37,1.59c0,1.59-0.06,3.23-0.18,4.91C262.26,83.69,262.14,85.33,262.02,86.92
		v3.19c-0.25,2.3-0.43,4.51-0.55,6.64c-0.12,2.12-0.25,4.34-0.37,6.64c-0.37,3.72-0.55,7.52-0.55,11.42
		c-0.12,1.42-0.16,2.83-0.09,4.25c0.06,1.42,0.09,2.83,0.09,4.25c0.24-2.48,0.4-5.04,0.46-7.7c0.06-2.65,0.21-5.31,0.46-7.96
		c0.12-2.48,0.24-5,0.37-7.57c0.12-2.56,0.25-5.18,0.37-7.83c0-0.88-0.03-1.77-0.09-2.66C262.04,88.69,262.02,87.81,262.02,86.92z
		 M256.12,129.92c0.24-0.35,0.49-0.62,0.74-0.8c0.25-0.17,0.37-0.44,0.37-0.8c0.12-0.53,0.18-1.42,0.18-2.66
		c0.12-1.77,0.18-3.54,0.18-5.31c0-1.77,0.06-3.54,0.18-5.31c0.12-1.59,0.24-3.18,0.37-4.78c0.12-1.59,0.24-3.19,0.37-4.78
		c0.24-2.65,0.43-5.26,0.55-7.83c0.12-2.56,0.31-5.08,0.55-7.57c0-0.88,0.03-1.86,0.09-2.92c0.06-1.06,0.15-2.03,0.28-2.92h-0.55
		c-0.98,7.43-1.72,14.91-2.21,22.43C256.73,114.22,256.36,121.96,256.12,129.92z M259.07,168.15h-0.37
		c0.24,5.31,0.4,10.62,0.46,15.93c0.06,5.31,0.28,10.53,0.64,15.66h0.55c-0.25-5.13-0.46-10.35-0.64-15.66
		C259.53,178.76,259.31,173.46,259.07,168.15z M269.57,107.36c0.12,0,0.24,0.09,0.37,0.26v-5.84c-0.12,1.06-0.22,2.04-0.28,2.92
		C269.6,105.59,269.57,106.47,269.57,107.36z M270.12,108.69c-0.12,0-0.18-0.04-0.18-0.13c0-0.09-0.06-0.13-0.18-0.13v7.43h0.37
		V108.69z M275.47,117.45c0.12-0.71,0.21-1.9,0.28-3.58c0.06-1.68,0.06-3.45,0-5.31c-0.06-1.86-0.16-3.63-0.28-5.31
		c-0.12-1.68-0.31-2.87-0.55-3.58C274.55,105.68,274.73,111.61,275.47,117.45z M276.2,123.29h-0.37v4.51h0.37V123.29z
		 M278.23,187.52c0.24-1.41,0.43-2.87,0.55-4.38c0.12-1.5,0.31-3.05,0.55-4.65c-0.62,2.65-1.05,5.49-1.29,8.49v0.53H278.23z
		 M279.34,177.17h0.18c0.24-1.41,0.46-2.74,0.65-3.98c0.18-1.24,0.4-2.56,0.65-3.98h-0.37L279.34,177.17z M279.52,201.33
		c0.86-3.01,1.44-6.06,1.75-9.16c0.31-3.09,0.71-6.24,1.2-9.42c0.49-3.01,0.95-6.11,1.38-9.29c0.43-3.18,0.89-6.28,1.38-9.29
		l3.32-18.32c-0.12-0.17-0.25-0.27-0.37-0.27c-2.09,9.2-3.81,18.41-5.16,27.61C281.67,182.39,280.5,191.77,279.52,201.33z
		 M303.66,107.62h-0.55c0,0.18-0.03,0.31-0.09,0.4c-0.06,0.09-0.09,0.22-0.09,0.4c-0.25,1.24-0.4,2.43-0.46,3.58
		c-0.06,1.15-0.22,2.35-0.46,3.58c-0.12,0.89-0.25,1.82-0.37,2.79c-0.12,0.97-0.25,1.9-0.37,2.79c-0.25,1.59-0.4,3.23-0.46,4.91
		c-0.06,1.68-0.22,3.32-0.46,4.91c-0.25,2.12-0.49,4.25-0.74,6.37c-0.25,2.12-0.49,4.25-0.74,6.37c-0.37,3.01-0.68,5.89-0.92,8.63
		c-0.25,2.75-0.49,5.62-0.74,8.63c-0.12,0.89-0.22,1.77-0.28,2.65c-0.06,0.89-0.03,1.77,0.09,2.65c0.12,0.36,0.28,0.75,0.46,1.19
		c0.18,0.44,0.15,0.93-0.09,1.46c-0.25,1.95-0.34,3.28-0.28,3.98c0.06,0.71,0.28,2.12,0.65,4.25c0.12,0.71,0.12,1.46,0,2.26
		c-0.12,0.8-0.06,1.64,0.18,2.52c0.25,1.24,0.37,2.48,0.37,3.72c0,1.24,0.06,2.48,0.18,3.72c0.12,0.18,0.25,0.27,0.37,0.27
		c0.24-0.71,0.37-1.24,0.37-1.59l-0.55-8.76c-0.12-1.59-0.18-3.19-0.18-4.78s0-3.19,0-4.78c0-2.48,0-5,0-7.57
		c0-2.56,0.12-5.18,0.37-7.83c0.24-4.07,0.58-8.1,1.01-12.08c0.43-3.98,0.83-8,1.2-12.08c0.25-3.01,0.58-5.88,1.01-8.63
		c0.43-2.74,0.77-5.62,1.01-8.63c0.12-0.88,0.21-1.77,0.28-2.65C303.44,109.39,303.54,108.51,303.66,107.62z M299.61,189.65
		c-0.74,0.89-0.98,1.59-0.74,2.12c0.24,0.53,0.49,1.06,0.74,1.59V189.65z M302.37,157.26h-0.18l-0.55,6.37h0.55
		c0.12-1.06,0.18-2.12,0.18-3.19S302.37,158.33,302.37,157.26z M302,155.94c0.12,0,0.21,0.05,0.28,0.13
		c0.06,0.09,0.15,0.13,0.28,0.13c0.61-9.03,1.29-17.96,2.03-26.81c0.74-8.85,1.41-17.79,2.03-26.81h-0.37
		c-0.74,9.03-1.47,17.92-2.21,26.68S302.61,146.91,302,155.94z M344.75,112.14h0.37v-8.23h-0.37V112.14z M347.7,112.4
		c0.12-1.95,0.18-3.76,0.18-5.44c0-1.68-0.31-3.41-0.92-5.18c0.24,1.77,0.4,3.54,0.46,5.31C347.48,108.86,347.57,110.63,347.7,112.4
		z M354.52,104.97c0.24,4.07,0.43,8.19,0.55,12.34c0.12,4.16,0.24,8.27,0.37,12.34c0.25-4.07,0.37-8.18,0.37-12.34
		C355.81,113.16,355.37,109.04,354.52,104.97z M358.75,188.85h-0.37v16.19h0.37V188.85z M358.75,186.99h0.18
		c0.12-2.48,0.25-5,0.37-7.57c0.12-2.56,0.24-5.08,0.37-7.56c0.12-1.59,0.15-3.14,0.09-4.65c-0.06-1.5-0.09-3.05-0.09-4.65
		c0.12-1.95,0.25-3.94,0.37-5.97c0.12-2.03,0.18-4.02,0.18-5.97c0.12-2.66,0.18-5.26,0.18-7.83c0-2.56,0-5.08,0-7.57
		c0-3.72,0-7.43,0-11.15c0-3.72-0.06-7.43-0.18-11.15c0-1.59-0.12-3.23-0.37-4.91c-0.25-1.68-0.49-3.32-0.74-4.91h-0.55v1.86
		c0,0.89,0.03,1.68,0.09,2.39c0.06,0.71,0.09,1.42,0.09,2.12c0.25,2.65,0.43,5.31,0.55,7.96c0.12,2.65,0.18,5.31,0.18,7.96
		c0.12,4.6,0.12,9.12,0,13.54c-0.12,1.42-0.16,2.75-0.09,3.98c0.06,1.24,0.03,2.57-0.09,3.98c-0.25,1.59-0.28,3.23-0.09,4.91
		c0.18,1.68,0.28,3.32,0.28,4.91c0,0.18-0.03,0.36-0.09,0.53c-0.06,0.18-0.09,0.44-0.09,0.8c-0.12,0.36-0.18,0.8-0.18,1.33
		c0,0.53-0.06,1.06-0.18,1.59c0,0.53,0.03,1.06,0.09,1.59c0.06,0.53,0.09,0.97,0.09,1.33c0,1.95-0.12,3.76-0.37,5.44
		c-0.25,1.68-0.25,3.41,0,5.18c0.12,0.53,0.15,1.02,0.09,1.46c-0.06,0.44-0.09,0.93-0.09,1.46V186.99z"/>
</g>
<g>
	<path class="st2" d="M454.93,124.97c0.42,4.92,0.38,9.73-0.11,14.42c-0.49,4.69-1.23,9.42-2.21,14.19
		c-0.28,1.85-0.74,3.69-1.37,5.54c-0.63,1.85-1.3,3.69-2,5.54c-2.11,5.23-4.35,10.61-6.74,16.15c-0.28,0.77-0.6,1.58-0.95,2.42
		c-0.35,0.85-0.74,1.65-1.16,2.42c-0.42,0.77-0.92,1.54-1.47,2.31c-0.56,0.77-1.13,1.54-1.68,2.31c-0.42,0.46-0.77,0.96-1.05,1.5
		c-0.28,0.54-0.63,1.04-1.05,1.5c-0.98,1.23-1.97,2.42-2.95,3.58c-0.98,1.15-2.04,2.35-3.16,3.58c-1.97,2.16-4.11,3.89-6.42,5.19
		c-2.32,1.31-4.67,2.58-7.05,3.81c-1.68,1.08-3.41,1.96-5.16,2.65c-1.76,0.69-3.55,1.42-5.37,2.19c-0.42,0.31-0.88,0.42-1.37,0.35
		c-0.49-0.08-0.95-0.04-1.37,0.12l-5.69,2.77c-0.42-0.77-0.7-1.23-0.84-1.38c-0.84-0.92-1.47-0.92-1.89,0
		c-0.28,0.61-0.6,0.88-0.95,0.81c-0.35-0.08-0.74-0.27-1.16-0.58c-0.42-0.31-0.88-0.5-1.37-0.58c-0.49-0.08-0.95-0.27-1.37-0.58
		c-0.28-0.16-0.49-0.23-0.63-0.23c-0.14,0-0.28-0.08-0.42-0.23c-0.84-0.62-1.41-0.92-1.68-0.92c-0.42-0.62-1.05-1.38-1.9-2.31
		l-0.21,0.23c0.28,0.92,0.49,1.69,0.63,2.31c-0.7,0.15-1.16,0.15-1.37,0c-0.21-0.15-0.39-0.69-0.53-1.62
		c-0.28-1.38-1.13-2.08-2.53-2.08c0.14,0.62,0.21,1.15,0.21,1.62c0,0.46,0.07,1,0.21,1.62c-0.84-0.16-1.51-0.46-2-0.92
		c-0.49-0.46-0.88-1-1.16-1.62c-0.42-0.77-0.88-1.5-1.37-2.19c-0.49-0.69-1.23-1.19-2.21-1.5c-0.7-0.31-1.37-0.77-2-1.38
		c-0.63-0.61-1.09-1.3-1.37-2.08c-0.7-1.38-1.16-2.84-1.37-4.38c-0.21-1.54-0.11-3.08,0.32-4.62c0.28-1.23,0.7-1.77,1.26-1.62
		c0.56,0.16,1.12,0.23,1.68,0.23c0.14,0.77,0.24,1.46,0.32,2.08c0.07,0.62,0.1,1.23,0.1,1.85h0.42c0-0.77,0.03-1.46,0.1-2.08
		c0.07-0.61,0.03-1.31-0.1-2.08c-0.14-1.23-0.25-2.46-0.32-3.69c-0.07-1.23-0.25-2.46-0.53-3.69c-0.28-2.31-0.49-4.62-0.63-6.92
		c-0.14-2.31-0.35-4.54-0.63-6.69c-0.28-2.61-0.46-5.23-0.53-7.85c-0.07-2.61-0.18-5.23-0.32-7.84c-0.14-1.08-0.25-2.08-0.32-3
		c-0.07-0.92-0.1-1.85-0.1-2.77c-0.14-0.46-0.14-0.96,0-1.5c0.14-0.54,0.21-1.04,0.21-1.5c0-0.61-0.07-1.15-0.21-1.62
		c-0.14-0.46-0.21-0.92-0.21-1.38c0-1.23,0.03-2.54,0.11-3.92c0.07-1.38,0.11-2.69,0.11-3.92c0-1.23-0.04-2.42-0.11-3.58
		c-0.07-1.15-0.04-2.34,0.11-3.58c0-0.77,0.03-1.5,0.1-2.19c0.07-0.69,0.11-1.42,0.11-2.19c0.14-1.54,0.21-3.04,0.21-4.5
		c0-1.46,0.07-3.04,0.21-4.73c0.14-1.69,0.28-3.31,0.42-4.85c0.14-1.54,0.28-3.15,0.42-4.85c0.14-1.69,0.24-3.31,0.32-4.85
		c0.07-1.54,0.24-3.15,0.53-4.85c0.28-1.69,0.56-3.35,0.84-4.96c0.28-1.62,0.56-3.27,0.84-4.96v-2.31c0.42-1.85,0.81-3.73,1.16-5.65
		c0.35-1.92,0.67-3.81,0.95-5.65c0.28-1.23,0.53-2.42,0.74-3.58c0.21-1.15,0.45-2.34,0.74-3.58c0.7-3.08,1.33-6.08,1.9-9
		c0.56-2.92,1.19-5.92,1.9-9c0.56-2.15,1.16-4.3,1.79-6.46c0.63-2.15,1.3-4.3,2-6.46c0.98-2.92,2.45-5,4.42-6.23
		c0.28-0.31,0.63-0.38,1.05-0.23c0.42,0.16,0.77,0.23,1.05,0.23h0.63c0.56-0.15,1.12-0.23,1.68-0.23c0.56,0,1.19-0.08,1.9-0.23
		c-0.14,0.62-0.21,1.31-0.21,2.08c0.14,0,0.21-0.04,0.21-0.12c0-0.08,0.07-0.12,0.21-0.12c0.42,0.16,0.88,0.19,1.37,0.12
		c0.49-0.08,0.88,0.04,1.16,0.35c1.26,0.62,2,1.12,2.21,1.5c0.21,0.39,0.17,1.27-0.11,2.65c-0.14,0.31-0.21,0.66-0.21,1.04
		c0,0.39-0.07,0.89-0.21,1.5c0.84-1.69,1.54-2.92,2.11-3.69c0.56-0.92,1.33-1,2.32-0.23c1.82,1.85,2.67,4,2.53,6.46
		c-0.28,2.46-0.46,4.92-0.53,7.38c-0.07,2.46-0.18,4.93-0.32,7.38c-0.14,3.54-0.25,7.08-0.32,10.61c-0.07,3.54-0.18,7.08-0.32,10.61
		c-0.14,2.62-0.21,5.27-0.21,7.96c0,2.69-0.07,5.35-0.21,7.96c0,3.08-0.04,6.04-0.11,8.88c-0.07,2.85-0.18,5.81-0.32,8.88
		c0,0.46,0,0.92,0,1.38c0,0.46,0.07,1.08,0.21,1.85c0.56-0.77,1.12-1.5,1.68-2.19c0.56-0.69,1.12-1.42,1.68-2.19
		c1.82-2.31,3.75-4.42,5.79-6.35c2.03-1.92,4.46-3.27,7.27-4.04c3.23-0.77,6.32-0.92,9.26-0.46c1.26,0.31,2.49,0.81,3.69,1.5
		c1.19,0.69,2.35,1.35,3.47,1.96c0.7,0.31,1.4,0.62,2.11,0.92c0.7,0.31,1.4,0.46,2.11,0.46c2.11,0,3.86,0.62,5.26,1.85
		c1.4,1.23,2.6,2.69,3.58,4.38c1.54,2.46,2.49,5.04,2.84,7.73C454.33,119.24,454.64,122.05,454.93,124.97z M389.02,36.13h-0.42
		c-0.56,1.38-1.09,2.77-1.58,4.15c-0.49,1.38-0.88,2.85-1.16,4.38c-0.42,1.69-0.77,3.31-1.05,4.85c-0.28,1.54-0.56,3.15-0.84,4.85
		c-0.56,2.31-1.09,4.62-1.58,6.92c-0.49,2.31-0.88,4.61-1.16,6.92c-0.28,1.85-0.63,3.66-1.05,5.42c-0.42,1.77-0.63,3.58-0.63,5.42
		c0,1.54-0.18,3.04-0.53,4.5c-0.35,1.46-0.67,2.96-0.95,4.5l-1.26,11.77c-0.28,1.69-0.46,3.46-0.53,5.31
		c-0.07,1.85-0.18,3.62-0.32,5.31c-0.14,2.62-0.25,5.23-0.32,7.85c-0.07,2.62-0.18,5.23-0.32,7.85c-0.14,2.16-0.25,4.35-0.32,6.58
		c-0.07,2.23-0.11,4.42-0.11,6.58c-0.14,1.23-0.25,2.39-0.32,3.46c-0.07,1.08-0.11,2.23-0.11,3.46c0.14,2.62,0.24,5.31,0.32,8.08
		c0.07,2.77,0.17,5.46,0.32,8.08l0.63,13.15c0.28,2,0.49,3.92,0.63,5.77c0.14,1.85,0.35,3.77,0.63,5.77
		c0.14,1.23,0.24,2.54,0.32,3.92c0.07,1.38,0.17,2.69,0.32,3.92h0.84c0-0.77,0.03-1.5,0.11-2.19c0.07-0.69,0.03-1.42-0.11-2.19
		c-0.28-2.15-0.49-4.27-0.63-6.35c-0.14-2.08-0.35-4.19-0.63-6.35c-0.14-2.15-0.21-4.3-0.21-6.46c0-2.15-0.07-4.3-0.21-6.46
		c-0.14-4-0.32-7.88-0.53-11.65c-0.21-3.77-0.32-7.65-0.32-11.65c0-2.77,0.07-5.54,0.21-8.31c0.14-2.77,0.28-5.46,0.42-8.08
		c0-1.38,0.03-2.73,0.11-4.04c0.07-1.3,0.17-2.57,0.32-3.81c0.28-3.54,0.53-7,0.74-10.38c0.21-3.38,0.45-6.84,0.74-10.38
		c0.14-1.23,0.32-2.42,0.53-3.58c0.21-1.15,0.38-2.34,0.53-3.58c0.28-1.54,0.45-3.04,0.53-4.5c0.07-1.46,0.24-2.96,0.53-4.5
		c0.42-2.77,0.88-5.57,1.37-8.42c0.49-2.84,1.02-5.65,1.58-8.42c0.28-2,0.56-3.96,0.84-5.88c0.28-1.92,0.63-3.88,1.05-5.88
		c0.56-2.31,1.12-4.62,1.68-6.92c0.56-2.31,1.19-4.62,1.9-6.92V36.13z M381.86,187.5c-1.41-21.23-1.72-42.26-0.95-63.11
		c0.77-20.84,2.98-41.8,6.63-62.88h-0.84c-0.56,3.54-1.09,7-1.58,10.38c-0.49,3.39-0.95,6.85-1.37,10.38
		c-1.13,6.92-1.97,13.84-2.53,20.77c-0.7,7.23-1.13,14.39-1.26,21.46c-0.14,3.54-0.18,7.08-0.11,10.61
		c0.07,3.54,0.03,7.08-0.11,10.61c-0.14,3.54-0.18,7-0.1,10.38c0.07,3.39,0.24,6.77,0.53,10.15c0.14,3.54,0.32,7.08,0.53,10.61
		c0.21,3.54,0.38,7.08,0.53,10.61H381.86z M387.54,60.13c0.28-1.38,0.49-2.73,0.63-4.04c0.14-1.3,0.35-2.65,0.63-4.04h-0.42
		c-0.28,1.38-0.53,2.73-0.74,4.04c-0.21,1.31-0.46,2.65-0.74,4.04H387.54z M393.65,118.74c0.14-3.84,0.28-7.65,0.42-11.42
		c0.14-3.77,0.28-7.58,0.42-11.42c-0.84,6.77-1.41,13.46-1.69,20.08c-0.28,6.62-0.42,13.31-0.42,20.08
		c0.56-0.61,0.84-1.23,0.84-1.85c0.14-2.61,0.24-5.19,0.32-7.73C393.61,123.93,393.65,121.36,393.65,118.74z M398.28,190.04
		c0.84-0.77,1.26-1.62,1.26-2.54s-0.14-1.92-0.42-3c-0.14,0.92-0.28,1.85-0.42,2.77C398.56,188.19,398.42,189.12,398.28,190.04z
		 M401.86,102.12c0.28-4,0.49-8,0.63-12c0.14-4,0.28-8,0.42-12c0-0.31-0.07-0.69-0.21-1.15c-0.42,0.77-0.63,1.31-0.63,1.62
		c-0.28,1.23-0.46,2.42-0.53,3.58c-0.07,1.15-0.18,2.35-0.32,3.58c-0.14,1.69-0.21,3.31-0.21,4.85c0,1.54-0.07,3.16-0.21,4.85
		c-0.14,2.16-0.25,4.27-0.32,6.35c-0.07,2.08-0.18,4.19-0.32,6.35c-0.14,2-0.28,3.96-0.42,5.88c-0.14,1.93-0.28,3.89-0.42,5.88
		c0,0.16,0.07,0.31,0.21,0.46c0.14,0.16,0.21,0.31,0.21,0.46c0.7-0.31,1.05-0.54,1.05-0.69c0.14-0.61,0.28-1.19,0.42-1.73
		c0.14-0.54,0.21-1.11,0.21-1.73c0.14-2.46,0.21-4.88,0.21-7.27C401.65,107.01,401.72,104.59,401.86,102.12z M402.71,64.51
		c-0.14,2-0.25,4-0.32,6c-0.07,2-0.25,4-0.53,6h0.84c0.14-2,0.24-4,0.32-6c0.07-2,0.17-4,0.32-6H402.71z M428.4,138.35
		c1.54-5.08,2.03-10,1.47-14.77c-5.76,7.38-10.63,15.15-14.63,23.31c-4,8.16-7.26,16.77-9.79,25.84c-0.7,2.16-1.37,4.38-2,6.69
		s-0.88,4.69-0.74,7.15c1.26-1.69,2.74-3.12,4.42-4.27c1.68-1.15,3.02-2.73,4-4.73c0.84-2,1.96-3.81,3.37-5.42
		c1.4-1.62,2.53-3.5,3.37-5.65c0.7-1.69,1.51-3.27,2.42-4.73c0.91-1.46,1.65-3.04,2.21-4.73c1.12-3.08,2.14-6.19,3.05-9.34
		C426.46,144.55,427.41,141.43,428.4,138.35z M432.61,136.74c-0.42,2.16-0.88,4.35-1.37,6.58c-0.49,2.23-1.02,4.5-1.58,6.81
		c1.54-4.46,2.91-8.84,4.11-13.15c1.19-4.3,1.44-8.84,0.74-13.61c-0.28,2.31-0.56,4.58-0.84,6.81
		C433.38,132.39,433.03,134.58,432.61,136.74z M435.34,146.2c0.42-2.31,0.84-4.62,1.26-6.92c0.42-2.31,0.84-4.69,1.26-7.15h-0.63
		c-0.42,2.31-0.84,4.62-1.26,6.92c-0.42,2.31-0.91,4.61-1.47,6.92c0.28,0,0.45,0.04,0.53,0.12
		C435.1,146.16,435.2,146.2,435.34,146.2z M442.5,155.66c1.12-2.46,1.9-5,2.32-7.61c0.42-2.61,0.7-5.23,0.84-7.85
		c-0.56,2.62-1.09,5.19-1.58,7.73C443.59,150.47,443.06,153.04,442.5,155.66z M445.87,163.96c4.49-9.23,6.53-19,6.11-29.31
		c-0.98,4.92-1.97,9.85-2.95,14.77C448.05,154.35,447,159.2,445.87,163.96z"/>
</g>
<g>
	<path class="st2" d="M492.24,86.67c0.28-0.86,0.45-1.64,0.53-2.33c0.07-0.69,0.24-1.38,0.53-2.07c0.7-1.03,1.23-1.51,1.58-1.42
		c0.35,0.09,0.88,0.65,1.58,1.68c0.14-0.34,0.24-0.65,0.32-0.9c0.07-0.26,0.24-0.56,0.53-0.91c0.28-0.69,0.63-1.03,1.05-1.03
		c0.28-0.17,0.53-0.13,0.74,0.13s0.45,0.48,0.74,0.65c0.42,0.17,0.81,0.35,1.16,0.52c0.35,0.17,0.81,0.43,1.37,0.78
		c-0.14-0.34-0.25-0.65-0.32-0.9c-0.07-0.26-0.25-0.65-0.53-1.16c1.4,0.87,2.84,1.34,4.32,1.42c1.47,0.09,2.77,0.74,3.9,1.94
		c0.28-0.17,0.49-0.43,0.63-0.78c0.14-0.34,0.35-0.6,0.63-0.78c0.98-0.34,1.9-0.34,2.74,0c0.98,0.52,1.86,1.12,2.63,1.81
		c0.77,0.69,1.58,1.29,2.42,1.81c1.26,0.86,2.39,1.94,3.37,3.23c0.98,1.29,1.96,2.63,2.95,4.01c0.56,0.86,1.02,1.77,1.37,2.71
		c0.35,0.95,0.74,1.94,1.16,2.97c0.56,1.03,1.09,2.03,1.58,2.97c0.49,0.95,1.02,1.94,1.58,2.97c0.28,0.52,0.49,1.08,0.63,1.68
		c0.14,0.61,0.35,1.16,0.63,1.68c0.7,2.24,1.47,4.39,2.32,6.46c0.84,2.07,1.54,4.22,2.11,6.46c0.56,2.07,0.95,4.14,1.16,6.2
		s0.45,4.14,0.74,6.2c0.14,1.55,0.24,3.1,0.32,4.65c0.07,1.55,0.17,3.19,0.32,4.91c0.14,0.35,0.17,0.78,0.11,1.29
		c-0.07,0.52-0.11,0.95-0.11,1.29c-0.14,1.21-0.28,2.37-0.42,3.49c-0.14,1.12-0.28,2.29-0.42,3.49c-0.28,2.24-0.49,4.48-0.63,6.72
		c-0.14,2.24-0.35,4.48-0.63,6.72c-0.28,2.93-0.92,5.78-1.9,8.53c-0.98,2.76-2.04,5.43-3.16,8.01c-0.28,0.86-0.7,1.64-1.26,2.33
		c-0.56,0.69-1.05,1.38-1.47,2.07c-0.84,1.38-1.72,2.76-2.63,4.14c-0.92,1.38-1.79,2.76-2.63,4.14c-1.55,2.07-3.02,3.88-4.42,5.43
		c-0.7,0.86-1.51,1.55-2.42,2.07c-0.92,0.52-1.79,1.21-2.63,2.07c-0.28,0.35-0.63,0.65-1.05,0.9c-0.42,0.26-0.77,0.56-1.05,0.91
		c-0.98,0.86-2.07,1.6-3.27,2.2c-1.19,0.61-2.35,1.16-3.48,1.68c-1.97,0.69-3.86,1.29-5.69,1.81c-1.83,0.52-3.72,0.52-5.69,0
		c-0.71-0.34-1.34-0.43-1.9-0.26c-0.56,0.17-1.19,0.09-1.9-0.26c-1.26-0.34-2.53-0.78-3.79-1.29c-1.26-0.52-2.53-1.03-3.79-1.55
		c-1.55-0.52-3.05-1.03-4.53-1.55s-2.99-1.03-4.53-1.55c-3.37-1.03-6.11-3.19-8.22-6.46c-1.69-2.58-3.09-5.3-4.21-8.14
		c-1.12-2.84-1.82-5.99-2.11-9.44c-0.28-2.41-0.53-4.69-0.74-6.85c-0.21-2.15-0.32-4.43-0.32-6.85c0-2.24,0.07-4.43,0.21-6.59
		c0.14-2.15,0.28-4.27,0.42-6.33c0.14-0.69,0.21-1.38,0.21-2.07c0-0.69,0.07-1.38,0.21-2.07c0.42-2.93,0.88-5.86,1.37-8.79
		c0.49-2.93,1.02-5.86,1.58-8.79c0.84-4.31,1.9-8.7,3.16-13.18c0.7-2.93,1.65-5.73,2.84-8.4c1.19-2.67,2.56-5.21,4.11-7.63
		c1.4-2.41,2.88-4.61,4.42-6.59c1.54-1.98,3.3-3.75,5.27-5.3c1.26-1.2,2.67-2.07,4.21-2.58c1.54-0.52,3.09-0.95,4.63-1.29
		c0.84-0.34,1.47-0.52,1.9-0.52L492.24,86.67z M466.12,133.72h-0.42c-0.28,1.72-0.6,3.41-0.95,5.04c-0.35,1.64-0.67,3.32-0.95,5.04
		c-0.28,2.76-0.56,5.43-0.84,8.01c-0.28,2.58-0.49,5.26-0.63,8.01c-0.14,2.24-0.21,4.48-0.21,6.72c0,2.24,0,4.48,0,6.72v3.1
		c0.28,1.03,0.49,2.07,0.63,3.1c0.14,1.03,0.35,1.98,0.63,2.84c0.14,0.52,0.28,0.99,0.42,1.42c0.14,0.43,0.28,0.82,0.42,1.16h0.42
		c-1.41-8.79-1.9-17.41-1.47-25.85C463.59,150.62,464.57,142.17,466.12,133.72z M466.75,153.63l-0.63,0.78
		c0,1.03-0.04,2.07-0.11,3.1c-0.07,1.03-0.11,2.07-0.11,3.1V165h0.21c0.14-1.89,0.24-3.79,0.32-5.69
		C466.5,157.42,466.61,155.53,466.75,153.63c0.14-1.2,0.28-2.37,0.42-3.49c0.14-1.12,0.28-2.28,0.42-3.49l-0.42-0.26
		C466.47,149.15,466.33,151.56,466.75,153.63z M478.12,136.05c-1.13,4.83-1.97,9.65-2.53,14.48c-0.56,4.83-0.7,9.56-0.42,14.22
		c0.56-4.48,1.05-9.13,1.47-13.96C477.07,145.96,477.56,141.05,478.12,136.05z M486.97,123.12c-1.55,3.79-2.84,7.67-3.9,11.63
		c-1.05,3.97-1.72,8.01-2,12.15c-0.42,3.97-0.67,8.01-0.74,12.15c-0.07,4.14,0.24,8.19,0.95,12.15c0-8.27,0.35-16.42,1.05-24.43
		C483.04,138.76,484.58,130.88,486.97,123.12z M481.71,172.24h-0.42c0,1.03,0.03,2.07,0.11,3.1c0.07,1.03,0.17,2.07,0.32,3.1h0.63
		L481.71,172.24z M501.72,103.99c-1.68,1.38-3.13,2.89-4.32,4.52c-1.19,1.64-2.28,3.41-3.26,5.3c-1.13,2.07-2.07,4.18-2.84,6.33
		c-0.77,2.16-1.51,4.26-2.21,6.33c-1.26,3.79-2.25,7.63-2.95,11.5c-0.71,3.88-1.2,7.8-1.47,11.76c-0.28,2.76-0.46,5.47-0.53,8.14
		c-0.07,2.67-0.04,5.39,0.11,8.14c0.42,5.69,1.05,11.55,1.9,17.58c0.28,1.38,0.66,2.63,1.16,3.75c0.49,1.12,1.02,2.37,1.58,3.75
		c0.28,1.03,0.91,1.12,1.9,0.26c1.82-1.89,3.54-3.79,5.16-5.69c1.61-1.89,2.98-4.14,4.11-6.72c0.7-1.89,1.44-3.7,2.21-5.43
		c0.77-1.72,1.44-3.53,2-5.43c1.4-5.17,2.24-10.51,2.53-16.03c0.14-2.41,0.28-4.74,0.42-6.98c0.14-2.24,0.07-4.56-0.21-6.98
		c-0.28-1.55-0.42-3.14-0.42-4.78c0-1.64-0.07-3.23-0.21-4.78c-0.28-2.58-0.6-5.17-0.95-7.76c-0.35-2.58-0.74-5.17-1.16-7.75
		c-0.28-1.55-0.67-3.06-1.16-4.52C502.59,107.06,502.14,105.55,501.72,103.99z M509.09,113.04c0.56,6.03,1.09,12.11,1.58,18.22
		c0.49,6.12,0.95,12.19,1.37,18.23c0.56-1.2,0.84-3.66,0.84-7.37c0-3.7-0.18-7.58-0.53-11.63c-0.35-4.05-0.84-7.75-1.47-11.12
		C510.25,116.01,509.65,113.91,509.09,113.04z M516.46,150.01c0.42-3.96,0.56-7.8,0.42-11.5c-0.14-3.7-0.56-7.54-1.26-11.5
		c0,0.17-0.14,0.26-0.42,0.26c0.28,3.79,0.49,7.59,0.63,11.38C515.97,142.43,516.18,146.22,516.46,150.01z M527.84,156.73
		c0.7-6.03,0.98-11.38,0.84-16.03c-0.14-4.65-0.63-7.67-1.47-9.05c0.14,4.31,0.24,8.58,0.32,12.8
		C527.59,148.68,527.7,152.77,527.84,156.73z M533.32,159.83h0.63c0-0.17,0.03-0.3,0.11-0.39c0.07-0.08,0.11-0.3,0.11-0.65
		c0.28-1.38,0.49-2.75,0.63-4.14c0.14-1.38,0.35-2.75,0.63-4.14c0.14-1.72,0.28-3.45,0.42-5.17c0.14-1.72,0.14-3.53,0-5.43
		c0-1.89-0.1-3.83-0.32-5.82c-0.21-1.98-0.46-3.92-0.74-5.82c-0.14-0.86-0.35-1.64-0.63-2.33c-0.28-0.69-0.56-1.38-0.84-2.07
		c0,2.93,0,5.91,0,8.92c0,3.02,0.14,5.99,0.42,8.92c0.28,2.93,0.32,5.91,0.11,8.92C533.63,153.67,533.46,156.73,533.32,159.83z"/>
</g>
<g>
	<path class="st2" d="M577.31,41.35c1.04,1.66,1.75,3.45,2.12,5.37c0.36,1.92,0.55,3.97,0.55,6.14c-0.11,2.43-0.13,4.86-0.08,7.29
		c0.05,2.43,0.02,4.93-0.08,7.48c-0.11,1.41-0.21,2.88-0.31,4.41c-0.11,1.53-0.26,3.01-0.47,4.41c-0.21,1.53-0.37,3.07-0.47,4.6
		c-0.1,1.54-0.26,3.01-0.47,4.41l-0.94,13.81c-0.21,2.56-0.42,5.08-0.63,7.58c-0.21,2.49-0.42,5.02-0.63,7.58
		c-0.21,1.79-0.39,3.62-0.55,5.47c-0.16,1.86-0.34,3.74-0.55,5.66c-0.21,2.18-0.37,4.35-0.47,6.52c-0.11,2.18-0.21,4.35-0.31,6.52
		c-0.1,0.9-0.21,1.73-0.31,2.49c-0.11,0.77-0.16,1.6-0.16,2.49c-0.11,1.79-0.16,3.52-0.16,5.18c0,1.66-0.05,3.33-0.16,4.99
		c0,1.79-0.42,3.01-1.25,3.65c-0.21,0.13-0.31,0.58-0.31,1.34c-0.11,1.15-0.18,2.34-0.23,3.55c-0.05,1.22-0.18,2.46-0.39,3.74
		c0,0.26-0.08,0.45-0.23,0.58c-0.16,0.13-0.34,0.32-0.55,0.58c0-0.13-0.05-0.25-0.16-0.38v-8.06h-0.16
		c-0.21,0.77-0.37,1.57-0.47,2.4c-0.1,0.83-0.26,1.7-0.47,2.59c0,0.9-0.11,1.99-0.31,3.26c-0.1,0.26-0.23,0.51-0.39,0.77
		c-0.16,0.26-0.34,0.32-0.55,0.19c-0.52,0-0.78-0.32-0.78-0.96c-0.11-0.38-0.16-0.74-0.16-1.06c0-0.32-0.1-0.67-0.31-1.06
		c-0.1,0.51-0.16,1.15-0.16,1.92c-0.21,1.28-0.63,1.41-1.25,0.38c0-0.13-0.03-0.19-0.08-0.19c-0.05,0-0.08-0.06-0.08-0.19
		c-0.21-0.25-0.42-0.41-0.63-0.48c-0.21-0.06-0.42-0.16-0.63-0.29c-0.11,0.26-0.26,0.77-0.47,1.54c0,0.38-0.05,0.64-0.16,0.77
		c-0.21-0.25-0.37-0.51-0.47-0.77c-0.21,0.26-0.39,0.45-0.55,0.58c-0.16,0.13-0.39,0.32-0.71,0.58c-0.11-1.15-0.21-2.21-0.31-3.17
		c-0.11-0.96-0.26-1.89-0.47-2.78h-0.31c0,0.64-0.03,1.38-0.08,2.21c-0.05,0.83-0.13,1.7-0.24,2.59c-0.63-0.51-1.04-0.89-1.25-1.15
		c-0.42-0.51-0.84-0.99-1.25-1.44c-0.42-0.45-0.94-0.74-1.57-0.86c-0.31,0-0.47-0.25-0.47-0.77c-0.21-1.79-0.42-3.2-0.63-4.22v4.03
		c-1.04-1.02-1.54-2.17-1.49-3.45c0.05-1.28-0.13-2.43-0.55-3.45c-0.11,0.64-0.18,1.25-0.23,1.82c-0.05,0.58-0.13,1.18-0.24,1.82
		c0,0.38-0.21,0.96-0.63,1.73c-0.11,0-0.16-0.03-0.16-0.1c0-0.06-0.11-0.1-0.31-0.1c-0.21-1.02-0.42-2.08-0.63-3.17
		c-0.21-1.08-0.42-2.14-0.63-3.17c-0.11-1.02-0.11-2.04,0-3.07c0.1-1.02,0.1-2.04,0-3.07c-0.11-1.92-0.18-3.77-0.24-5.56
		c-0.05-1.79-0.13-3.58-0.24-5.37c0-1.02,0.03-2.04,0.08-3.07c0.05-1.02,0.08-2.04,0.08-3.07v-4.22c-0.21-2.43-0.34-4.92-0.39-7.48
		c-0.05-2.56,0.02-5.11,0.23-7.67c0.1-0.64,0.1-1.34,0-2.11c-0.1-0.77-0.1-1.54,0-2.3c0-1.41,0-2.84,0-4.32
		c0-1.47,0.05-2.91,0.16-4.32v-5.37c0.21-2.17,0.42-4.22,0.63-6.14c0.21-1.92,0.42-3.96,0.63-6.14c0.1-1.02,0.18-2.08,0.24-3.17
		c0.05-1.08,0.18-2.14,0.39-3.17c0.21-1.92,0.39-3.8,0.55-5.66c0.16-1.85,0.34-3.74,0.55-5.66c0.21-0.89,0.34-1.76,0.39-2.59
		c0.05-0.83,0.13-1.63,0.23-2.4c0.31-2.3,0.65-4.61,1.02-6.91c0.37-2.3,0.76-4.61,1.17-6.91c0.31-1.79,0.65-3.55,1.02-5.28
		c0.36-1.73,0.71-3.42,1.02-5.08c0.1-0.38,0.16-0.83,0.16-1.34c0.1-1.02,0.36-1.73,0.78-2.11c0.42-0.38,1.04-0.64,1.88-0.77
		c1.04-0.25,2.01-0.13,2.9,0.38c0.89,0.51,1.85,0.96,2.9,1.34c1.15,0.64,2.27,1.31,3.37,2.01c1.1,0.71,2.27,1.38,3.52,2.01
		c1.04,0.64,1.9,1.34,2.58,2.11C576.19,39.43,576.79,40.33,577.31,41.35z M566.34,181.23c0.52,1.03,1.02,1.95,1.49,2.78
		c0.47,0.83,0.96,1.76,1.49,2.78c2.71,6.14,3.03,12.6,0.94,19.38c-0.42,1.92-1.15,3.84-2.19,5.76c-0.21,0.64-0.5,1.25-0.86,1.82
		c-0.37,0.58-0.92,0.86-1.64,0.86c-0.21,0.13-0.45,0.25-0.71,0.38c-0.26,0.13-0.55,0.19-0.86,0.19c-0.84,0.64-1.57,0.77-2.19,0.38
		s-1.36-0.7-2.19-0.96c-0.73-0.51-1.38-1.06-1.96-1.63c-0.58-0.58-1.23-0.99-1.96-1.25c-2.09-1.03-3.47-2.27-4.15-3.74
		c-0.68-1.47-1.12-3.49-1.33-6.04c-0.21-2.18-0.13-4.25,0.23-6.24c0.37-1.98,0.81-3.93,1.33-5.85c0.21-0.89,0.57-1.47,1.1-1.73
		c0.42-0.38,0.63-0.89,0.63-1.54c-0.21-1.15-0.39-2.24-0.55-3.26c-0.16-1.02-0.34-2.04-0.55-3.07c-0.1-1.15-0.05-1.92,0.16-2.3
		c0.21-0.38,0.78-0.77,1.72-1.15c0.1,0.38,0.18,0.74,0.24,1.05c0.05,0.32,0.13,0.67,0.23,1.06c0.42-0.77,0.68-1.34,0.78-1.73
		l0.47-0.58c0,0.13,0.05,0.19,0.16,0.19c0.1,0,0.16,0.07,0.16,0.19c0.42,1.03,0.89,1.22,1.41,0.58h0.47
		c0.73,0.51,1.72,0.96,2.98,1.34c0.1,0.26,0.21,0.45,0.31,0.58c0.1,0.13,0.21,0.32,0.31,0.58c0.94-0.64,1.72-0.86,2.35-0.67
		C564.78,179.59,565.51,180.2,566.34,181.23z M552.87,151.68c0-0.89-0.05-1.79-0.16-2.69c-0.11-0.89-0.16-1.73-0.16-2.49
		c0-2.56,0.02-5.15,0.08-7.77c0.05-2.62,0.08-5.21,0.08-7.77v-10.36c-0.63,0.64-0.86,1.34-0.71,2.11c0.16,0.77,0.18,1.54,0.08,2.3
		c-0.1,1.54-0.1,3.1,0,4.7c0.1,1.6,0.16,3.17,0.16,4.7c0,1.41-0.03,2.78-0.08,4.13c-0.05,1.34-0.08,2.72-0.08,4.13
		c0,0.77,0.03,1.44,0.08,2.01c0.05,0.58,0.08,1.18,0.08,1.82v3.26v3.26c0,0.26,0.05,0.51,0.16,0.77h0.47V151.68z M557.1,53.63
		c0-0.25-0.03-0.48-0.08-0.67c-0.05-0.19-0.13-0.48-0.23-0.86c-0.21,0.64-0.37,1.25-0.47,1.82c-0.11,0.58-0.21,1.18-0.31,1.82
		c-0.21,1.79-0.37,3.45-0.47,4.99c-0.11,1.53-0.26,3.14-0.47,4.8c-0.31,3.2-0.63,6.37-0.94,9.5c-0.31,3.14-0.58,6.36-0.78,9.69
		c-0.21,1.79-0.37,3.58-0.47,5.37c-0.11,1.79-0.26,3.58-0.47,5.37c0,0.26-0.03,0.45-0.08,0.58c-0.05,0.13-0.08,0.32-0.08,0.58
		c0.31,1.28,0.39,2.56,0.24,3.84c-0.16,1.28-0.24,2.49-0.24,3.65c0,0.77-0.03,1.5-0.08,2.21c-0.05,0.7-0.08,1.44-0.08,2.21
		c0,0.38,0.03,0.83,0.08,1.34c0.05,0.51,0.08,0.96,0.08,1.34c0,1.15-0.03,2.27-0.08,3.36c-0.05,1.09-0.08,2.14-0.08,3.17
		c-0.1,0.51-0.13,0.96-0.08,1.34c0.05,0.38,0.08,0.83,0.08,1.34h0.16c0.1,0,0.18,0.03,0.24,0.1c0.05,0.07,0.13,0.1,0.23,0.1
		c0-2.94,0.02-5.95,0.08-9.02c0.05-3.07,0.13-6.2,0.24-9.4c0.21-3.07,0.36-6.11,0.47-9.11c0.1-3,0.26-5.98,0.47-8.92
		c0.21-2.04,0.39-4.09,0.55-6.14c0.16-2.04,0.34-4.16,0.55-6.33c0-0.64,0.05-1.31,0.16-2.01c0.1-0.7,0.21-1.37,0.31-2.01
		c0.21-2.43,0.47-4.8,0.78-7.1C556.63,58.24,556.89,55.93,557.1,53.63z M552.4,202.52c0.21-1.79,0.37-3.52,0.47-5.18
		c0.1-1.66,0.26-3.39,0.47-5.18c-0.52,1.92-0.89,3.84-1.1,5.76C552.03,199.84,552.09,201.37,552.4,202.52z M557.42,48.64
		c0.31-2.04,0.63-4.03,0.94-5.95c0.31-1.92,0.63-3.96,0.94-6.14c-0.21,0.26-0.45,0.93-0.7,2.01c-0.26,1.09-0.52,2.34-0.78,3.74
		c-0.26,1.41-0.45,2.72-0.55,3.93C557.15,47.46,557.2,48.26,557.42,48.64z M564.31,205.4c1.15-2.69,1.41-5.05,0.78-7.1
		c-0.11,1.28-0.21,2.49-0.31,3.65C564.67,203.1,564.52,204.25,564.31,205.4z M567.75,207.32c0.63-1.54,1.15-3.14,1.57-4.8
		c0.42-1.66,0.42-3.39,0-5.18c-0.73,1.41-1.12,3-1.17,4.8C568.09,203.93,567.96,205.66,567.75,207.32z M574.8,102.56
		c0.52-5.76,1.04-11.54,1.57-17.36c0.52-5.82,1.04-11.61,1.57-17.36c-0.31,0-0.52-0.06-0.63-0.19c-0.73,5.76-1.28,11.58-1.64,17.46
		C575.3,90.98,575.01,96.8,574.8,102.56z"/>
</g>
</svg>
